<?xml version="1.0" encoding="UTF-8" standalone="no" ?>
<!DOCTYPE svg PUBLIC "-//W3C//DTD SVG 1.1//EN" "http://www.w3.org/Graphics/SVG/1.1/DTD/svg11.dtd">
<svg xmlns="http://www.w3.org/2000/svg" xmlns:xlink="http://www.w3.org/1999/xlink" version="1.1" width="1080" height="1080" viewBox="0 0 1080 1080" xml:space="preserve">
<desc>Created with Fabric.js 5.2.4</desc>
<defs>
</defs>
<g transform="matrix(1 0 0 1 540 540)" id="e41c54cb-95a6-4177-8ba8-f5f1a2e5d2bc"  >
<rect style="stroke: none; stroke-width: 1; stroke-dasharray: none; stroke-linecap: butt; stroke-dashoffset: 0; stroke-linejoin: miter; stroke-miterlimit: 4; fill: rgb(255,255,255); fill-rule: nonzero; opacity: 1; visibility: hidden;" vector-effect="non-scaling-stroke"  x="-540" y="-540" rx="0" ry="0" width="1080" height="1080" />
</g>
<g transform="matrix(1 0 0 1 540 540)" id="e6728043-f030-4993-8b8f-c4ed479c9a52"  >
</g>
<g transform="matrix(1 0 0 1 540 540)"  >
<g style="" vector-effect="non-scaling-stroke"   >
		<g transform="matrix(1 0 0 1 0 0)"  >
<linearGradient id="SVGID_linear-gradient_3" gradientUnits="userSpaceOnUse" gradientTransform="matrix(1 0 0 -1 0 34)"  x1="100.15" y1="41.58" x2="100.32" y2="-34.5">
<stop offset="0%" style="stop-color:rgb(40,40,130);stop-opacity: 1"/>
<stop offset="10%" style="stop-color:rgb(42,44,133);stop-opacity: 1"/>
<stop offset="20%" style="stop-color:rgb(47,57,141);stop-opacity: 1"/>
<stop offset="30%" style="stop-color:rgb(56,78,154);stop-opacity: 1"/>
<stop offset="40%" style="stop-color:rgb(68,107,172);stop-opacity: 1"/>
<stop offset="49%" style="stop-color:rgb(81,137,191);stop-opacity: 1"/>
<stop offset="60%" style="stop-color:rgb(59,92,153);stop-opacity: 1"/>
<stop offset="72%" style="stop-color:rgb(39,52,120);stop-opacity: 1"/>
<stop offset="83%" style="stop-color:rgb(25,24,96);stop-opacity: 1"/>
<stop offset="93%" style="stop-color:rgb(16,6,81);stop-opacity: 1"/>
<stop offset="100%" style="stop-color:rgb(13,0,76);stop-opacity: 1"/>
</linearGradient>
<path style="stroke: none; stroke-width: 1; stroke-dasharray: none; stroke-linecap: butt; stroke-dashoffset: 0; stroke-linejoin: miter; stroke-miterlimit: 4; fill: url(#SVGID_linear-gradient_3); fill-rule: nonzero; opacity: 1;" vector-effect="non-scaling-stroke"  transform=" translate(-100.2, -16.05)" d="M 193.3 32.4 L 7 32.4 C 5.2752788697823085 32.40265955930243 3.6204327308307205 31.71869418274925 2.400869274040735 30.49913072595926 C 1.1813058172507498 29.279567269169277 0.4973404406975739 27.624721130217694 0.5 25.9 L 0.5 -0.3 L 199.9 -0.3 L 199.9 25.9 C 199.8242057812651 29.49688523226819 196.89762315994818 32.37912569265606 193.3 32.4 Z" stroke-linecap="round" />
</g>
		<g transform="matrix(1 0 0 1 9.95 0.29)"  >
<path style="stroke: none; stroke-width: 1; stroke-dasharray: none; stroke-linecap: butt; stroke-dashoffset: 0; stroke-linejoin: miter; stroke-miterlimit: 4; fill: rgb(255,255,255); fill-rule: nonzero; opacity: 0.11;" vector-effect="non-scaling-stroke"  transform=" translate(-110.15, -16.34)" d="M 68 6.76 L 152.28 6.76 C 153.58813619576387 6.7492328983973495 154.84582308004894 7.264130305865617 155.77084638709167 8.189153612908326 C 156.6958696941344 9.114176919951035 157.21076710160264 10.371863804236138 157.2 11.679999999999994 L 157.2 21 C 157.21076710160264 22.308136195763858 156.6958696941344 23.565823080048965 155.77084638709167 24.490846387091672 C 154.84582308004897 25.415869694134383 153.58813619576387 25.930767101602655 152.28 25.92 L 68 25.92 C 66.69614448735587 25.922690931350274 65.44520806817866 25.40455600774813 64.52512067153019 24.480713152337827 C 63.60503327488171 23.556870296927524 63.09199809258534 22.303833734968443 63.1 21 L 63.1 11.68 C 63.09199809258534 10.37616626503156 63.60503327488171 9.123129703072475 64.52512067153019 8.199286847662172 C 65.44520806817866 7.27544399225187 66.69614448735587 6.757309068649727 68 6.76 Z" stroke-linecap="round" />
</g>
		<g transform="matrix(1 0 0 1 -48.95 -1.18)"  >
<path style="stroke: rgb(118,117,118); stroke-width: 0.1; stroke-dasharray: none; stroke-linecap: butt; stroke-dashoffset: 0; stroke-linejoin: miter; stroke-miterlimit: 10; fill: rgb(255,255,255); fill-rule: nonzero; opacity: 1;" vector-effect="non-scaling-stroke"  transform=" translate(-51.25, -14.87)" d="M 52 11.91 C 52.11246676553696 11.693522755924274 52.19008706598413 11.460661854582757 52.23 11.22 C 51.98868570243042 11.366796474909806 51.71243141415775 11.4462195827882 51.43 11.450000000000001 C 51.2 11.450000000000001 50.86 11.22 50.63 11.22 C 50.63 11.34 50.970000000000006 11.8 50.86 11.91 C 50.74999999999999 12.02 49.14 15.69 48.339999999999996 17.52 C 48.24967439000261 17.746802689674805 48.27870039685139 18.003744522211555 48.41734650533528 18.20468091131865 C 48.55599261381918 18.405617300425746 48.78590454655588 18.52394784409983 49.029999999999994 18.52 L 53.489999999999995 18.41 C 53.7130550655138 18.40166138380471 53.920428872123146 18.293085247991193 54.054355397194584 18.114516547895942 C 54.18828192226602 17.93594784780069 54.23445034679638 17.706467675427927 54.17999999999999 17.49 C 53.57859121465097 15.58346334605027 52.85029813072501 13.719300314716826 52.00000000000001 11.910000000000007 Z" stroke-linecap="round" />
</g>
		<g transform="matrix(1 0 0 1 -54.68 4.91)"  >
<path style="stroke: none; stroke-width: 1; stroke-dasharray: none; stroke-linecap: butt; stroke-dashoffset: 0; stroke-linejoin: miter; stroke-miterlimit: 4; fill: rgb(255,255,255); fill-rule: nonzero; opacity: 1;" vector-effect="non-scaling-stroke"  transform=" translate(-45.52, -20.96)" d="M 46.61 19.7 L 46.61 20.27 L 46 20.27 L 46 19.93 C 46 19.81 46 19.81 45.88 19.81 L 45.080000000000005 19.81 C 44.970000000000006 19.81 44.970000000000006 19.81 44.970000000000006 19.93 L 44.970000000000006 20.62 C 44.970000000000006 20.73 44.970000000000006 20.73 45.080000000000005 20.73 L 46.230000000000004 20.73 C 46.323689008189234 20.71639433318859 46.41830320694133 20.74781068903839 46.48524625895148 20.81475374104853 C 46.552189310961616 20.881696793058673 46.583605666811415 20.976310991810767 46.57000000000001 21.07 L 46.57000000000001 22.330000000000002 C 46.582825917801756 22.424383800978283 46.55154958383291 22.519424368319854 46.485179856571165 22.587746146383413 C 46.41881012930942 22.656067924446972 46.324715848238824 22.690085343175415 46.230000000000004 22.680000000000003 L 44.78 22.680000000000003 C 44.68528415176118 22.690085343175415 44.591189870690584 22.656067924446972 44.52482014342884 22.587746146383413 C 44.458450416167096 22.519424368319854 44.42717408219825 22.424383800978283 44.44 22.330000000000002 L 44.44 21.650000000000002 L 45 21.650000000000002 L 45 22 C 45 22.11 45 22.11 45.11 22.11 L 45.91 22.11 C 46.029999999999994 22.11 46.029999999999994 22.11 46.029999999999994 22 L 46.029999999999994 21.3 C 46.029999999999994 21.19 46.029999999999994 21.19 45.91 21.19 L 44.78 21.19 C 44.68528415176118 21.200085343175413 44.591189870690584 21.16606792444697 44.52482014342884 21.09774614638341 C 44.458450416167096 21.02942436831985 44.42717408219825 20.93438380097828 44.44 20.84 L 44.44 19.58 C 44.42639433318859 19.486310991810765 44.45781068903839 19.39169679305867 44.52475374104853 19.32475374104853 C 44.591696793058674 19.257810689038386 44.68631099181077 19.226394333188587 44.78 19.24 L 46.27 19.24 C 46.465063967849815 19.31162592408972 46.59875779907799 19.492505813398427 46.61 19.7 Z" stroke-linecap="round" />
</g>
		<g transform="matrix(1 0 0 1 -51.86 5.03)"  >
<path style="stroke: none; stroke-width: 1; stroke-dasharray: none; stroke-linecap: butt; stroke-dashoffset: 0; stroke-linejoin: miter; stroke-miterlimit: 4; fill: rgb(255,255,255); fill-rule: nonzero; opacity: 1;" vector-effect="non-scaling-stroke"  transform=" translate(-48.34, -21.09)" d="M 48.67 22 L 47.67 22 L 47.56 22.8 L 47 22.8 L 48 19.37 L 48.68 19.37 L 49.68 22.8 L 49.11 22.8 Z M 48.56 21.43 L 48.21 20 L 47.87 21.38 Z" stroke-linecap="round" />
</g>
		<g transform="matrix(1 0 0 1 -49.22 4.91)"  >
<path style="stroke: none; stroke-width: 1; stroke-dasharray: none; stroke-linecap: butt; stroke-dashoffset: 0; stroke-linejoin: miter; stroke-miterlimit: 4; fill: rgb(255,255,255); fill-rule: nonzero; opacity: 1;" vector-effect="non-scaling-stroke"  transform=" translate(-50.98, -20.96)" d="M 52.11 19.24 L 52.11 22.68 L 51.42 22.68 L 50.42 20.39 L 50.42 22.68 L 49.85 22.68 L 49.85 19.24 L 50.53 19.24 L 51.53 21.529999999999998 L 51.53 19.24 Z" stroke-linecap="round" />
</g>
		<g transform="matrix(1 0 0 1 -47.17 4.96)"  >
<path style="stroke: none; stroke-width: 1; stroke-dasharray: none; stroke-linecap: butt; stroke-dashoffset: 0; stroke-linejoin: miter; stroke-miterlimit: 4; fill: rgb(255,255,255); fill-rule: nonzero; opacity: 1;" vector-effect="non-scaling-stroke"  transform=" translate(-53.02, -21.02)" d="M 53.37 19.58 L 53.37 22.79 L 52.8 22.79 L 52.8 19.93 C 52.8 19.81 52.8 19.81 52.68 19.81 L 52.68 19.81 L 52.68 19.24 L 53.14 19.24 C 53.25 19.24 53.37 19.36 53.37 19.58 Z" stroke-linecap="round" />
</g>
		<g transform="matrix(1 0 0 1 -45.28 5.01)"  >
<path style="stroke: none; stroke-width: 1; stroke-dasharray: none; stroke-linecap: butt; stroke-dashoffset: 0; stroke-linejoin: miter; stroke-miterlimit: 4; fill: rgb(255,255,255); fill-rule: nonzero; opacity: 1;" vector-effect="non-scaling-stroke"  transform=" translate(-54.91, -21.06)" d="M 56 19.7 L 56 21 C 56.01360566681141 21.093689008189234 55.98218931096161 21.188303206941328 55.91524625895147 21.25524625895147 C 55.848303206941324 21.322189310961612 55.75368900818923 21.35360566681141 55.66 21.34 L 54.51 21.34 C 54.4 21.34 54.4 21.34 54.4 21.46 L 54.4 22.26 L 55.4 22.26 L 55.4 21.8 L 56 21.8 L 56 22.8 L 53.83 22.8 L 53.83 21.07 C 53.81639433318859 20.976310991810767 53.84781068903839 20.881696793058673 53.91475374104853 20.81475374104853 C 53.981696793058674 20.74781068903839 54.07631099181077 20.71639433318859 54.17 20.73 L 55.31 20.73 C 55.43 20.73 55.43 20.73 55.43 20.62 L 55.43 19.93 C 55.43 19.81 55.43 19.81 55.31 19.81 L 54.510000000000005 19.81 C 54.400000000000006 19.81 54.400000000000006 19.81 54.400000000000006 19.93 L 54.400000000000006 20.27 L 53.830000000000005 20.27 L 53.830000000000005 19.7 C 53.8163943331886 19.606310991810766 53.8478106890384 19.51169679305867 53.914753741048536 19.44475374104853 C 53.98169679305868 19.377810689038387 54.07631099181078 19.346394333188588 54.17000000000001 19.36 L 55.66000000000001 19.36 C 55.89 19.24 56 19.47 56 19.7 Z" stroke-linecap="round" />
</g>
		<g transform="matrix(1 0 0 1 -42.54 5.01)"  >
<path style="stroke: none; stroke-width: 1; stroke-dasharray: none; stroke-linecap: butt; stroke-dashoffset: 0; stroke-linejoin: miter; stroke-miterlimit: 4; fill: rgb(255,255,255); fill-rule: nonzero; opacity: 1;" vector-effect="non-scaling-stroke"  transform=" translate(-57.66, -21.06)" d="M 58.75 19.7 L 58.75 21 C 58.76360566681141 21.093689008189234 58.73218931096161 21.188303206941328 58.66524625895147 21.25524625895147 C 58.598303206941324 21.322189310961612 58.50368900818923 21.35360566681141 58.41 21.34 L 57.26 21.34 C 57.15 21.34 57.15 21.34 57.15 21.46 L 57.15 22.26 L 58.15 22.26 L 58.15 21.8 L 58.72 21.8 L 58.72 22.8 L 56.57 22.8 L 56.57 21.07 C 56.55991465682459 20.975284151761183 56.593932075553035 20.881189870690587 56.66225385361659 20.814820143428843 C 56.73057563168015 20.7484504161671 56.825616199021724 20.717174082198255 56.92 20.73 L 58.06 20.73 C 58.18 20.73 58.18 20.73 58.18 20.62 L 58.18 19.93 C 58.18 19.81 58.18 19.81 58.06 19.81 L 57.260000000000005 19.81 C 57.150000000000006 19.81 57.150000000000006 19.81 57.150000000000006 19.93 L 57.150000000000006 20.27 L 56.57000000000001 20.27 L 56.57000000000001 19.7 C 56.559914656824596 19.605284151761182 56.59393207555304 19.511189870690586 56.6622538536166 19.444820143428842 C 56.73057563168016 19.378450416167098 56.82561619902173 19.347174082198254 56.92000000000001 19.36 L 58.41000000000001 19.36 C 58.52 19.24 58.75 19.47 58.75 19.7 Z" stroke-linecap="round" />
</g>
		<g transform="matrix(1 0 0 1 -48.95 -1.18)"  >
<path style="stroke: rgb(187,189,191); stroke-width: 0.1; stroke-dasharray: none; stroke-linecap: butt; stroke-dashoffset: 0; stroke-linejoin: miter; stroke-miterlimit: 10; fill: rgb(255,255,255); fill-rule: nonzero; opacity: 1;" vector-effect="non-scaling-stroke"  transform=" translate(-51.25, -14.87)" d="M 52 11.91 C 52.11246676553696 11.693522755924274 52.19008706598413 11.460661854582757 52.23 11.22 C 51.98868570243042 11.366796474909806 51.71243141415775 11.4462195827882 51.43 11.450000000000001 C 51.2 11.450000000000001 50.86 11.22 50.63 11.22 C 50.63 11.34 50.970000000000006 11.8 50.86 11.91 C 50.74999999999999 12.02 49.14 15.69 48.339999999999996 17.52 C 48.24967439000261 17.746802689674805 48.27870039685139 18.003744522211555 48.41734650533528 18.20468091131865 C 48.55599261381918 18.405617300425746 48.78590454655588 18.52394784409983 49.029999999999994 18.52 L 53.489999999999995 18.41 C 53.7130550655138 18.40166138380471 53.920428872123146 18.293085247991193 54.054355397194584 18.114516547895942 C 54.18828192226602 17.93594784780069 54.23445034679638 17.706467675427927 54.17999999999999 17.49 C 53.5571462655891 15.59109393152356 52.82935994042857 13.728228016663088 52.00000000000001 11.910000000000004 Z" stroke-linecap="round" />
</g>
		<g transform="matrix(1 0 0 1 -51.2 2.39)"  >
<path style="stroke: none; stroke-width: 1; stroke-dasharray: none; stroke-linecap: butt; stroke-dashoffset: 0; stroke-linejoin: miter; stroke-miterlimit: 4; fill: rgb(242,242,242); fill-rule: nonzero; opacity: 1;" vector-effect="non-scaling-stroke"  transform=" translate(-49, -18.44)" d="M 49 18.44 L 49 18.44 Z" stroke-linecap="round" />
</g>
		<g transform="matrix(1 0 0 1 -49.92 -0.71)"  >
<path style="stroke: none; stroke-width: 1; stroke-dasharray: none; stroke-linecap: butt; stroke-dashoffset: 0; stroke-linejoin: miter; stroke-miterlimit: 4; fill: rgb(242,242,242); fill-rule: nonzero; opacity: 1;" vector-effect="non-scaling-stroke"  transform=" translate(-50.28, -15.34)" d="M 49.93 16.38 C 50.05 16.38 50.16 16.49 50.39 16.49 C 50.25681815780191 16.246183006963516 50.24962303711399 15.953046611481799 50.37068258371541 15.702989187354282 C 50.49174213031682 15.452931763226767 50.72614277139998 15.276758395269145 51 15.23 C 51.179534472607 15.140680468403822 51.380228976475976 15.10261771767005 51.58 15.120000000000001 C 51.58 14.89 51.35 14.770000000000001 51.12 14.66 C 50.8301152153916 14.425879229390093 50.486404979486935 14.267772520873946 50.12 14.2 C 50 14.319999999999999 50 14.549999999999999 49.89 14.66 C 49.78 14.770000000000001 49.77 14.89 49.77 15 C 49.77 15.11 49.660000000000004 15.23 49.540000000000006 15.35 C 49.378359055654855 15.743530208558438 49.18783960023967 16.124569119388816 48.970000000000006 16.49 C 49.26754287385236 16.343053549187225 49.60693013368279 16.304165425664987 49.93 16.38 Z" stroke-linecap="round" />
</g>
		<g transform="matrix(1 0 0 1 -49.92 -0.71)"  >
<path style="stroke: none; stroke-width: 1; stroke-dasharray: none; stroke-linecap: butt; stroke-dashoffset: 0; stroke-linejoin: miter; stroke-miterlimit: 4; fill: rgb(238,59,36); fill-rule: nonzero; opacity: 0.68;" vector-effect="non-scaling-stroke"  transform=" translate(-50.28, -15.34)" d="M 49.93 16.38 C 50.05 16.38 50.16 16.49 50.39 16.49 C 50.25681815780191 16.246183006963516 50.24962303711399 15.953046611481799 50.37068258371541 15.702989187354282 C 50.49174213031682 15.452931763226767 50.72614277139998 15.276758395269145 51 15.23 C 51.179534472607 15.140680468403822 51.380228976475976 15.10261771767005 51.58 15.120000000000001 C 51.58 14.89 51.35 14.770000000000001 51.12 14.66 C 50.8301152153916 14.425879229390093 50.486404979486935 14.267772520873946 50.12 14.2 C 50 14.319999999999999 50 14.549999999999999 49.89 14.66 C 49.78 14.770000000000001 49.77 14.89 49.77 15 C 49.77 15.11 49.660000000000004 15.23 49.540000000000006 15.35 C 49.378359055654855 15.743530208558438 49.18783960023967 16.124569119388816 48.970000000000006 16.49 C 49.26754287385236 16.343053549187225 49.60693013368279 16.304165425664987 49.93 16.38 Z" stroke-linecap="round" />
</g>
		<g transform="matrix(1 0 0 1 -47.76 0.24)"  >
<path style="stroke: none; stroke-width: 1; stroke-dasharray: none; stroke-linecap: butt; stroke-dashoffset: 0; stroke-linejoin: miter; stroke-miterlimit: 4; fill: rgb(242,242,242); fill-rule: nonzero; opacity: 1;" vector-effect="non-scaling-stroke"  transform=" translate(-52.43, -16.29)" d="M 51.42 15.12 L 51.42 15.459999999999999 C 51.68691850627053 16.062178949228613 51.514417324961755 16.76861235839787 51 17.18 L 51 17.29 C 51.12 17.29 51.12 17.41 51.23 17.41 C 51.46542130270153 17.39258881942487 51.70166229569396 17.430250427003372 51.919999999999995 17.52 C 51.946713630391756 17.349309792543547 52.02730417448363 17.191632641059435 52.14999999999999 17.07 C 52.34895215054593 16.836917595363435 52.643791626879995 16.70792532446728 52.94999999999999 16.72 C 53.247651914899755 16.62875764709708 53.55922720462617 16.59150407984718 53.86999999999999 16.61 C 53.74999999999999 16.49 53.74999999999999 16.259999999999998 53.63999999999999 16.15 L 52.949999999999996 15.809999999999999 C 52.6766823395603 15.23748499538887 52.03004293714018 14.94586330410136 51.42 15.12 Z" stroke-linecap="round" />
</g>
		<g transform="matrix(1 0 0 1 -47.76 0.24)"  >
<path style="stroke: none; stroke-width: 1; stroke-dasharray: none; stroke-linecap: butt; stroke-dashoffset: 0; stroke-linejoin: miter; stroke-miterlimit: 4; fill: rgb(249,164,44); fill-rule: nonzero; opacity: 0.68;" vector-effect="non-scaling-stroke"  transform=" translate(-52.43, -16.29)" d="M 51.42 15.12 L 51.42 15.459999999999999 C 51.68691850627053 16.062178949228613 51.514417324961755 16.76861235839787 51 17.18 L 51 17.29 C 51.12 17.29 51.12 17.41 51.23 17.41 C 51.46542130270153 17.39258881942487 51.70166229569396 17.430250427003372 51.919999999999995 17.52 C 51.946713630391756 17.349309792543547 52.02730417448363 17.191632641059435 52.14999999999999 17.07 C 52.34895215054593 16.836917595363435 52.643791626879995 16.70792532446728 52.94999999999999 16.72 C 53.247651914899755 16.62875764709708 53.55922720462617 16.59150407984718 53.86999999999999 16.61 C 53.74999999999999 16.49 53.74999999999999 16.259999999999998 53.63999999999999 16.15 L 52.949999999999996 15.809999999999999 C 52.6766823395603 15.23748499538887 52.03004293714018 14.94586330410136 51.42 15.12 Z" stroke-linecap="round" />
</g>
		<g transform="matrix(1 0 0 1 -49.26 0.1)"  >
<path style="stroke: none; stroke-width: 1; stroke-dasharray: none; stroke-linecap: butt; stroke-dashoffset: 0; stroke-linejoin: miter; stroke-miterlimit: 4; fill: rgb(242,242,242); fill-rule: nonzero; opacity: 1;" vector-effect="non-scaling-stroke"  transform=" translate(-50.94, -16.15)" d="M 51.08 17.18 C 51.541231431144055 16.73680456116469 51.71842209231971 16.07426556720353 51.54 15.459999999999999 L 51.54 15.12 C 51.31 15.12 51.19 15.229999999999999 50.96 15.229999999999999 C 50.69336741080936 15.28736663881462 50.46975103487516 15.467805966423427 50.357338817282674 15.716296131627875 C 50.24492659969018 15.964786296832322 50.25704547431231 16.25186776159756 50.39 16.49 C 50.62 16.72 51 16.84 51.08 17.18 Z" stroke-linecap="round" />
</g>
		<g transform="matrix(1 0 0 1 -49.26 0.1)"  >
<path style="stroke: none; stroke-width: 1; stroke-dasharray: none; stroke-linecap: butt; stroke-dashoffset: 0; stroke-linejoin: miter; stroke-miterlimit: 4; fill: rgb(238,59,36); fill-rule: nonzero; opacity: 0.68;" vector-effect="non-scaling-stroke"  transform=" translate(-50.94, -16.15)" d="M 51.08 17.18 C 51.541231431144055 16.73680456116469 51.71842209231971 16.07426556720353 51.54 15.459999999999999 L 51.54 15.12 C 51.31 15.12 51.19 15.229999999999999 50.96 15.229999999999999 C 50.69336741080936 15.28736663881462 50.46975103487516 15.467805966423427 50.357338817282674 15.716296131627875 C 50.24492659969018 15.964786296832322 50.25704547431231 16.25186776159756 50.39 16.49 C 50.62 16.72 51 16.84 51.08 17.18 Z" stroke-linecap="round" />
</g>
		<g transform="matrix(1 0 0 1 -49.26 0.1)"  >
<path style="stroke: none; stroke-width: 1; stroke-dasharray: none; stroke-linecap: butt; stroke-dashoffset: 0; stroke-linejoin: miter; stroke-miterlimit: 4; fill: rgb(249,164,44); fill-rule: nonzero; opacity: 0.68;" vector-effect="non-scaling-stroke"  transform=" translate(-50.94, -16.15)" d="M 51.08 17.18 C 51.541231431144055 16.73680456116469 51.71842209231971 16.07426556720353 51.54 15.459999999999999 L 51.54 15.12 C 51.31 15.12 51.19 15.229999999999999 50.96 15.229999999999999 C 50.69336741080936 15.28736663881462 50.46975103487516 15.467805966423427 50.357338817282674 15.716296131627875 C 50.24492659969018 15.964786296832322 50.25704547431231 16.25186776159756 50.39 16.49 C 50.62 16.72 51 16.84 51.08 17.18 Z" stroke-linecap="round" />
</g>
		<g transform="matrix(1 0 0 1 -46.76 1.59)"  >
<path style="stroke: none; stroke-width: 1; stroke-dasharray: none; stroke-linecap: butt; stroke-dashoffset: 0; stroke-linejoin: miter; stroke-miterlimit: 4; fill: rgb(242,242,242); fill-rule: nonzero; opacity: 1;" vector-effect="non-scaling-stroke"  transform=" translate(-53.44, -17.64)" d="M 52.57 17.87 L 52.57 17.87 C 52.57 17.98 52.68 18.1 52.68 18.21 C 52.68 18.32 52.91 18.330000000000002 53.02 18.44 L 53.6 18.44 C 53.82274875134537 18.432450481190315 54.029845345310726 18.32355647557859 54.16232123425502 18.144324390536315 C 54.2947971231993 17.96509230549404 54.33813689072581 17.735160645557954 54.28 17.52 C 54.15494782599175 17.312685406147526 54.076468347953956 17.08065912325319 54.050000000000004 16.84 C 53.70196890017874 17.35548330586267 53.17428340361155 17.72272388793308 52.57 17.87 Z" stroke-linecap="round" />
</g>
		<g transform="matrix(1 0 0 1 -46.76 1.59)"  >
<path style="stroke: none; stroke-width: 1; stroke-dasharray: none; stroke-linecap: butt; stroke-dashoffset: 0; stroke-linejoin: miter; stroke-miterlimit: 4; fill: rgb(116,191,68); fill-rule: nonzero; opacity: 0.68;" vector-effect="non-scaling-stroke"  transform=" translate(-53.44, -17.64)" d="M 52.57 17.87 L 52.57 17.87 C 52.57 17.98 52.68 18.1 52.68 18.21 C 52.68 18.32 52.91 18.330000000000002 53.02 18.44 L 53.6 18.44 C 53.82274875134537 18.432450481190315 54.029845345310726 18.32355647557859 54.16232123425502 18.144324390536315 C 54.2947971231993 17.96509230549404 54.33813689072581 17.735160645557954 54.28 17.52 C 54.15494782599175 17.312685406147526 54.076468347953956 17.08065912325319 54.050000000000004 16.84 C 53.70196890017874 17.35548330586267 53.17428340361155 17.72272388793308 52.57 17.87 Z" stroke-linecap="round" />
</g>
		<g transform="matrix(1 0 0 1 -47.34 1.13)"  >
<path style="stroke: none; stroke-width: 1; stroke-dasharray: none; stroke-linecap: butt; stroke-dashoffset: 0; stroke-linejoin: miter; stroke-miterlimit: 4; fill: rgb(242,242,242); fill-rule: nonzero; opacity: 1;" vector-effect="non-scaling-stroke"  transform=" translate(-52.86, -17.18)" d="M 52.91 16.61 C 52.60544471018308 16.595445622202355 52.31088831717585 16.720632089230428 52.11 16.95 C 51.96702158741272 17.06009211359757 51.882286643325685 17.22956200177163 51.88 17.41 C 52.11737289229735 17.492993311034272 52.31874922459709 17.655507544118276 52.45 17.87 L 52.45 17.87 C 53.08030975558535 17.75619900457978 53.60440217972702 17.319455317795054 53.830000000000005 16.720000000000002 C 53.830000000000005 16.610000000000003 53.71000000000001 16.610000000000003 53.71000000000001 16.490000000000002 C 53.43853850292705 16.485580009677665 53.1682177176451 16.52612812746996 52.91 16.61 Z" stroke-linecap="round" />
</g>
		<g transform="matrix(1 0 0 1 -47.34 1.13)"  >
<path style="stroke: none; stroke-width: 1; stroke-dasharray: none; stroke-linecap: butt; stroke-dashoffset: 0; stroke-linejoin: miter; stroke-miterlimit: 4; fill: rgb(249,164,44); fill-rule: nonzero; opacity: 0.68;" vector-effect="non-scaling-stroke"  transform=" translate(-52.86, -17.18)" d="M 52.91 16.61 C 52.60544471018308 16.595445622202355 52.31088831717585 16.720632089230428 52.11 16.95 C 51.96702158741272 17.06009211359757 51.882286643325685 17.22956200177163 51.88 17.41 C 52.11737289229735 17.492993311034272 52.31874922459709 17.655507544118276 52.45 17.87 L 52.45 17.87 C 53.08030975558535 17.75619900457978 53.60440217972702 17.319455317795054 53.830000000000005 16.720000000000002 C 53.830000000000005 16.610000000000003 53.71000000000001 16.610000000000003 53.71000000000001 16.490000000000002 C 53.43853850292705 16.485580009677665 53.1682177176451 16.52612812746996 52.91 16.61 Z" stroke-linecap="round" />
</g>
		<g transform="matrix(1 0 0 1 -47.34 1.13)"  >
<path style="stroke: none; stroke-width: 1; stroke-dasharray: none; stroke-linecap: butt; stroke-dashoffset: 0; stroke-linejoin: miter; stroke-miterlimit: 4; fill: rgb(116,191,68); fill-rule: nonzero; opacity: 0.68;" vector-effect="non-scaling-stroke"  transform=" translate(-52.86, -17.18)" d="M 52.91 16.61 C 52.60544471018308 16.595445622202355 52.31088831717585 16.720632089230428 52.11 16.95 C 51.96702158741272 17.06009211359757 51.882286643325685 17.22956200177163 51.88 17.41 C 52.11737289229735 17.492993311034272 52.31874922459709 17.655507544118276 52.45 17.87 L 52.45 17.87 C 53.08030975558535 17.75619900457978 53.60440217972702 17.319455317795054 53.830000000000005 16.720000000000002 C 53.830000000000005 16.610000000000003 53.71000000000001 16.610000000000003 53.71000000000001 16.490000000000002 C 53.43853850292705 16.485580009677665 53.1682177176451 16.52612812746996 52.91 16.61 Z" stroke-linecap="round" />
</g>
		<g transform="matrix(1 0 0 1 -51.21 1.47)"  >
<path style="stroke: none; stroke-width: 1; stroke-dasharray: none; stroke-linecap: butt; stroke-dashoffset: 0; stroke-linejoin: miter; stroke-miterlimit: 4; fill: rgb(242,242,242); fill-rule: nonzero; opacity: 1;" vector-effect="non-scaling-stroke"  transform=" translate(-48.99, -17.53)" d="M 49.36 18.44 C 49.13 17.98 49.019999999999996 17.52 49.47 17.290000000000003 L 49.589999999999996 17.180000000000003 L 49.24999999999999 16.840000000000003 C 49.07699203960262 16.811441857220103 48.91665129046233 16.731271482649962 48.78999999999999 16.610000000000003 C 48.69385182443544 16.885181016126683 48.576845492690204 17.1526240601158 48.43999999999999 17.410000000000004 C 48.30127618205191 17.76103412464822 48.45303215183603 18.159935530937897 48.78999999999999 18.330000000000005 L 49.129999999999995 18.330000000000005 Z" stroke-linecap="round" />
</g>
		<g transform="matrix(1 0 0 1 -51.21 1.47)"  >
<path style="stroke: none; stroke-width: 1; stroke-dasharray: none; stroke-linecap: butt; stroke-dashoffset: 0; stroke-linejoin: miter; stroke-miterlimit: 4; fill: rgb(119,76,158); fill-rule: nonzero; opacity: 0.68;" vector-effect="non-scaling-stroke"  transform=" translate(-48.99, -17.53)" d="M 49.36 18.44 C 49.13 17.98 49.019999999999996 17.52 49.47 17.290000000000003 L 49.589999999999996 17.180000000000003 L 49.24999999999999 16.840000000000003 C 49.07699203960262 16.811441857220103 48.91665129046233 16.731271482649962 48.78999999999999 16.610000000000003 C 48.69385182443544 16.885181016126683 48.576845492690204 17.1526240601158 48.43999999999999 17.410000000000004 C 48.30127618205191 17.76103412464822 48.45303215183603 18.159935530937897 48.78999999999999 18.330000000000005 L 49.129999999999995 18.330000000000005 Z" stroke-linecap="round" />
</g>
		<g transform="matrix(1 0 0 1 -50.42 0.71)"  >
<path style="stroke: none; stroke-width: 1; stroke-dasharray: none; stroke-linecap: butt; stroke-dashoffset: 0; stroke-linejoin: miter; stroke-miterlimit: 4; fill: rgb(242,242,242); fill-rule: nonzero; opacity: 1;" vector-effect="non-scaling-stroke"  transform=" translate(-49.77, -16.76)" d="M 50.73 17.07 C 50.62 16.95 50.62 16.84 50.5 16.72 C 50.38 16.599999999999998 50.39 16.61 50.39 16.49 C 50.39 16.369999999999997 50.160000000000004 16.38 49.93 16.38 C 49.59434626563785 16.29433271361783 49.23900654201392 16.333420083216463 48.93 16.49 C 48.93 16.49 48.93 16.61 48.82 16.61 C 48.93103680529526 16.7518270654875 49.09991626443285 16.836266795056297 49.28 16.84 L 49.620000000000005 17.18 C 49.98217900827948 17.086680129572702 50.356549507748504 17.04958035034604 50.73 17.07 Z" stroke-linecap="round" />
</g>
		<g transform="matrix(1 0 0 1 -50.42 0.71)"  >
<path style="stroke: none; stroke-width: 1; stroke-dasharray: none; stroke-linecap: butt; stroke-dashoffset: 0; stroke-linejoin: miter; stroke-miterlimit: 4; fill: rgb(238,59,36); fill-rule: nonzero; opacity: 0.68;" vector-effect="non-scaling-stroke"  transform=" translate(-49.77, -16.76)" d="M 50.73 17.07 C 50.62 16.95 50.62 16.84 50.5 16.72 C 50.38 16.599999999999998 50.39 16.61 50.39 16.49 C 50.39 16.369999999999997 50.160000000000004 16.38 49.93 16.38 C 49.59434626563785 16.29433271361783 49.23900654201392 16.333420083216463 48.93 16.49 C 48.93 16.49 48.93 16.61 48.82 16.61 C 48.93103680529526 16.7518270654875 49.09991626443285 16.836266795056297 49.28 16.84 L 49.620000000000005 17.18 C 49.98217900827948 17.086680129572702 50.356549507748504 17.04958035034604 50.73 17.07 Z" stroke-linecap="round" />
</g>
		<g transform="matrix(1 0 0 1 -50.42 0.71)"  >
<path style="stroke: none; stroke-width: 1; stroke-dasharray: none; stroke-linecap: butt; stroke-dashoffset: 0; stroke-linejoin: miter; stroke-miterlimit: 4; fill: rgb(119,76,158); fill-rule: nonzero; opacity: 0.68;" vector-effect="non-scaling-stroke"  transform=" translate(-49.77, -16.76)" d="M 50.73 17.07 C 50.62 16.95 50.62 16.84 50.5 16.72 C 50.38 16.599999999999998 50.39 16.61 50.39 16.49 C 50.39 16.369999999999997 50.160000000000004 16.38 49.93 16.38 C 49.59434626563785 16.29433271361783 49.23900654201392 16.333420083216463 48.93 16.49 C 48.93 16.49 48.93 16.61 48.82 16.61 C 48.93103680529526 16.7518270654875 49.09991626443285 16.836266795056297 49.28 16.84 L 49.620000000000005 17.18 C 49.98217900827948 17.086680129572702 50.356549507748504 17.04958035034604 50.73 17.07 Z" stroke-linecap="round" />
</g>
		<g transform="matrix(1 0 0 1 -49.12 1.13)"  >
<path style="stroke: none; stroke-width: 1; stroke-dasharray: none; stroke-linecap: butt; stroke-dashoffset: 0; stroke-linejoin: miter; stroke-miterlimit: 4; fill: rgb(242,242,242); fill-rule: nonzero; opacity: 1;" vector-effect="non-scaling-stroke"  transform=" translate(-51.08, -17.18)" d="M 51.08 17.18 Z" stroke-linecap="round" />
</g>
		<g transform="matrix(1 0 0 1 -49.12 1.13)"  >
<path style="stroke: none; stroke-width: 1; stroke-dasharray: none; stroke-linecap: butt; stroke-dashoffset: 0; stroke-linejoin: miter; stroke-miterlimit: 4; fill: rgb(249,164,44); fill-rule: nonzero; opacity: 0.68;" vector-effect="non-scaling-stroke"  transform=" translate(-51.08, -17.18)" d="M 51.08 17.18 Z" stroke-linecap="round" />
</g>
		<g transform="matrix(1 0 0 1 -49.12 1.13)"  >
<path style="stroke: none; stroke-width: 1; stroke-dasharray: none; stroke-linecap: butt; stroke-dashoffset: 0; stroke-linejoin: miter; stroke-miterlimit: 4; fill: rgb(119,76,158); fill-rule: nonzero; opacity: 0.68;" vector-effect="non-scaling-stroke"  transform=" translate(-51.08, -17.18)" d="M 51.08 17.18 Z" stroke-linecap="round" />
</g>
		<g transform="matrix(1 0 0 1 -49.46 0.84)"  >
<path style="stroke: none; stroke-width: 1; stroke-dasharray: none; stroke-linecap: butt; stroke-dashoffset: 0; stroke-linejoin: miter; stroke-miterlimit: 4; fill: rgb(242,242,242); fill-rule: nonzero; opacity: 1;" vector-effect="non-scaling-stroke"  transform=" translate(-50.73, -16.89)" d="M 50.73 17.07 C 50.85699539384579 17.055284408714634 50.98425563928973 17.095280485854154 51.08 17.18 L 51.08 17.18 C 50.93377309039759 16.906764332369363 50.68592594867683 16.70202104138265 50.39 16.61 C 50.39 16.72 50.5 16.72 50.5 16.84 C 50.5 16.96 50.62 17 50.73 17.07 Z" stroke-linecap="round" />
</g>
		<g transform="matrix(1 0 0 1 -49.46 0.84)"  >
<path style="stroke: none; stroke-width: 1; stroke-dasharray: none; stroke-linecap: butt; stroke-dashoffset: 0; stroke-linejoin: miter; stroke-miterlimit: 4; fill: rgb(238,59,36); fill-rule: nonzero; opacity: 0.68;" vector-effect="non-scaling-stroke"  transform=" translate(-50.73, -16.89)" d="M 50.73 17.07 C 50.85699539384579 17.055284408714634 50.98425563928973 17.095280485854154 51.08 17.18 L 51.08 17.18 C 50.93377309039759 16.906764332369363 50.68592594867683 16.70202104138265 50.39 16.61 C 50.39 16.72 50.5 16.72 50.5 16.84 C 50.5 16.96 50.62 17 50.73 17.07 Z" stroke-linecap="round" />
</g>
		<g transform="matrix(1 0 0 1 -49.46 0.84)"  >
<path style="stroke: none; stroke-width: 1; stroke-dasharray: none; stroke-linecap: butt; stroke-dashoffset: 0; stroke-linejoin: miter; stroke-miterlimit: 4; fill: rgb(249,164,44); fill-rule: nonzero; opacity: 0.68;" vector-effect="non-scaling-stroke"  transform=" translate(-50.73, -16.89)" d="M 50.73 17.07 C 50.85699539384579 17.055284408714634 50.98425563928973 17.095280485854154 51.08 17.18 L 51.08 17.18 C 50.93377309039759 16.906764332369363 50.68592594867683 16.70202104138265 50.39 16.61 C 50.39 16.72 50.5 16.72 50.5 16.84 C 50.5 16.96 50.62 17 50.73 17.07 Z" stroke-linecap="round" />
</g>
		<g transform="matrix(1 0 0 1 -49.46 0.84)"  >
<path style="stroke: none; stroke-width: 1; stroke-dasharray: none; stroke-linecap: butt; stroke-dashoffset: 0; stroke-linejoin: miter; stroke-miterlimit: 4; fill: rgb(119,76,158); fill-rule: nonzero; opacity: 0.68;" vector-effect="non-scaling-stroke"  transform=" translate(-50.73, -16.89)" d="M 50.73 17.07 C 50.85699539384579 17.055284408714634 50.98425563928973 17.095280485854154 51.08 17.18 L 51.08 17.18 C 50.93377309039759 16.906764332369363 50.68592594867683 16.70202104138265 50.39 16.61 C 50.39 16.72 50.5 16.72 50.5 16.84 C 50.5 16.96 50.62 17 50.73 17.07 Z" stroke-linecap="round" />
</g>
		<g transform="matrix(1 0 0 1 -48.72 2.1)"  >
<path style="stroke: none; stroke-width: 1; stroke-dasharray: none; stroke-linecap: butt; stroke-dashoffset: 0; stroke-linejoin: miter; stroke-miterlimit: 4; fill: rgb(242,242,242); fill-rule: nonzero; opacity: 1;" vector-effect="non-scaling-stroke"  transform=" translate(-51.48, -18.16)" d="M 51.08 17.87 C 50.99354145287337 18.10542741215709 50.83185905227536 18.305772995506803 50.62 18.44 L 52.339999999999996 18.44 C 52.248293159397626 18.352143052990193 52.20375688159262 18.225956932542662 52.22 18.1 C 51.825301733483116 18.215536352641124 51.39902629614905 18.129533413529867 51.08 17.87 Z" stroke-linecap="round" />
</g>
		<g transform="matrix(1 0 0 1 -48.72 2.1)"  >
<path style="stroke: none; stroke-width: 1; stroke-dasharray: none; stroke-linecap: butt; stroke-dashoffset: 0; stroke-linejoin: miter; stroke-miterlimit: 4; fill: rgb(64,198,243); fill-rule: nonzero; opacity: 0.68;" vector-effect="non-scaling-stroke"  transform=" translate(-51.48, -18.16)" d="M 51.08 17.87 C 50.99354145287337 18.10542741215709 50.83185905227536 18.305772995506803 50.62 18.44 L 52.339999999999996 18.44 C 52.248293159397626 18.352143052990193 52.20375688159262 18.225956932542662 52.22 18.1 C 51.825301733483116 18.215536352641124 51.39902629614905 18.129533413529867 51.08 17.87 Z" stroke-linecap="round" />
</g>
		<g transform="matrix(1 0 0 1 -48.63 1.62)"  >
<path style="stroke: none; stroke-width: 1; stroke-dasharray: none; stroke-linecap: butt; stroke-dashoffset: 0; stroke-linejoin: miter; stroke-miterlimit: 4; fill: rgb(242,242,242); fill-rule: nonzero; opacity: 1;" vector-effect="non-scaling-stroke"  transform=" translate(-51.56, -17.67)" d="M 51.08 17.87 C 51.360142161930334 18.09654314353281 51.72903363321368 18.18138818192798 52.08 18.1 L 52.08 18 C 51.99379304701955 17.822739208673358 51.952578889929434 17.626971962495276 51.96 17.43 C 51.74729694001202 17.332596916253816 51.51319453469378 17.29128472708001 51.28 17.31 C 51.160000000000004 17.31 51.160000000000004 17.2 51.050000000000004 17.2 L 51.050000000000004 17.89 Z" stroke-linecap="round" />
</g>
		<g transform="matrix(1 0 0 1 -48.63 1.62)"  >
<path style="stroke: none; stroke-width: 1; stroke-dasharray: none; stroke-linecap: butt; stroke-dashoffset: 0; stroke-linejoin: miter; stroke-miterlimit: 4; fill: rgb(249,164,44); fill-rule: nonzero; opacity: 0.68;" vector-effect="non-scaling-stroke"  transform=" translate(-51.56, -17.67)" d="M 51.08 17.87 C 51.360142161930334 18.09654314353281 51.72903363321368 18.18138818192798 52.08 18.1 L 52.08 18 C 51.99379304701955 17.822739208673358 51.952578889929434 17.626971962495276 51.96 17.43 C 51.74729694001202 17.332596916253816 51.51319453469378 17.29128472708001 51.28 17.31 C 51.160000000000004 17.31 51.160000000000004 17.2 51.050000000000004 17.2 L 51.050000000000004 17.89 Z" stroke-linecap="round" />
</g>
		<g transform="matrix(1 0 0 1 -48.63 1.62)"  >
<path style="stroke: none; stroke-width: 1; stroke-dasharray: none; stroke-linecap: butt; stroke-dashoffset: 0; stroke-linejoin: miter; stroke-miterlimit: 4; fill: rgb(64,198,243); fill-rule: nonzero; opacity: 0.68;" vector-effect="non-scaling-stroke"  transform=" translate(-51.56, -17.67)" d="M 51.08 17.87 C 51.360142161930334 18.09654314353281 51.72903363321368 18.18138818192798 52.08 18.1 L 52.08 18 C 51.99379304701955 17.822739208673358 51.952578889929434 17.626971962495276 51.96 17.43 C 51.74729694001202 17.332596916253816 51.51319453469378 17.29128472708001 51.28 17.31 C 51.160000000000004 17.31 51.160000000000004 17.2 51.050000000000004 17.2 L 51.050000000000004 17.89 Z" stroke-linecap="round" />
</g>
		<g transform="matrix(1 0 0 1 -47.71 2.1)"  >
<path style="stroke: none; stroke-width: 1; stroke-dasharray: none; stroke-linecap: butt; stroke-dashoffset: 0; stroke-linejoin: miter; stroke-miterlimit: 4; fill: rgb(242,242,242); fill-rule: nonzero; opacity: 1;" vector-effect="non-scaling-stroke"  transform=" translate(-52.49, -18.16)" d="M 52.68 18.21 C 52.69578045253058 18.085942073295207 52.65545661514826 17.961304757749875 52.57 17.87 C 52.45 17.98 52.22 17.98 52.11 18.1 C 52 18.220000000000002 52.22 18.330000000000002 52.22 18.44 L 52.91 18.44 C 52.91 18.33 52.8 18.33 52.68 18.21 Z" stroke-linecap="round" />
</g>
		<g transform="matrix(1 0 0 1 -47.71 2.1)"  >
<path style="stroke: none; stroke-width: 1; stroke-dasharray: none; stroke-linecap: butt; stroke-dashoffset: 0; stroke-linejoin: miter; stroke-miterlimit: 4; fill: rgb(116,191,68); fill-rule: nonzero; opacity: 0.68;" vector-effect="non-scaling-stroke"  transform=" translate(-52.49, -18.16)" d="M 52.68 18.21 C 52.69578045253058 18.085942073295207 52.65545661514826 17.961304757749875 52.57 17.87 C 52.45 17.98 52.22 17.98 52.11 18.1 C 52 18.220000000000002 52.22 18.330000000000002 52.22 18.44 L 52.91 18.44 C 52.91 18.33 52.8 18.33 52.68 18.21 Z" stroke-linecap="round" />
</g>
		<g transform="matrix(1 0 0 1 -47.71 2.1)"  >
<path style="stroke: none; stroke-width: 1; stroke-dasharray: none; stroke-linecap: butt; stroke-dashoffset: 0; stroke-linejoin: miter; stroke-miterlimit: 4; fill: rgb(64,198,243); fill-rule: nonzero; opacity: 0.68;" vector-effect="non-scaling-stroke"  transform=" translate(-52.49, -18.16)" d="M 52.68 18.21 C 52.69578045253058 18.085942073295207 52.65545661514826 17.961304757749875 52.57 17.87 C 52.45 17.98 52.22 17.98 52.11 18.1 C 52 18.220000000000002 52.22 18.330000000000002 52.22 18.44 L 52.91 18.44 C 52.91 18.33 52.8 18.33 52.68 18.21 Z" stroke-linecap="round" />
</g>
		<g transform="matrix(1 0 0 1 -47.94 1.69)"  >
<path style="stroke: none; stroke-width: 1; stroke-dasharray: none; stroke-linecap: butt; stroke-dashoffset: 0; stroke-linejoin: miter; stroke-miterlimit: 4; fill: rgb(242,242,242); fill-rule: nonzero; opacity: 1;" vector-effect="non-scaling-stroke"  transform=" translate(-52.26, -17.74)" d="M 52.11 18 L 52.11 18 C 52.339999999999996 18.12 52.45 18 52.57 17.89 L 52.57 17.89 C 52.432094298875576 17.677437017159576 52.228383648072956 17.5158733975575 51.99 17.43 C 51.88 17.52 52 17.75 52.11 18 Z" stroke-linecap="round" />
</g>
		<g transform="matrix(1 0 0 1 -47.94 1.69)"  >
<path style="stroke: none; stroke-width: 1; stroke-dasharray: none; stroke-linecap: butt; stroke-dashoffset: 0; stroke-linejoin: miter; stroke-miterlimit: 4; fill: rgb(249,164,44); fill-rule: nonzero; opacity: 0.68;" vector-effect="non-scaling-stroke"  transform=" translate(-52.26, -17.74)" d="M 52.11 18 L 52.11 18 C 52.339999999999996 18.12 52.45 18 52.57 17.89 L 52.57 17.89 C 52.432094298875576 17.677437017159576 52.228383648072956 17.5158733975575 51.99 17.43 C 51.88 17.52 52 17.75 52.11 18 Z" stroke-linecap="round" />
</g>
		<g transform="matrix(1 0 0 1 -47.94 1.69)"  >
<path style="stroke: none; stroke-width: 1; stroke-dasharray: none; stroke-linecap: butt; stroke-dashoffset: 0; stroke-linejoin: miter; stroke-miterlimit: 4; fill: rgb(116,191,68); fill-rule: nonzero; opacity: 0.68;" vector-effect="non-scaling-stroke"  transform=" translate(-52.26, -17.74)" d="M 52.11 18 L 52.11 18 C 52.339999999999996 18.12 52.45 18 52.57 17.89 L 52.57 17.89 C 52.432094298875576 17.677437017159576 52.228383648072956 17.5158733975575 51.99 17.43 C 51.88 17.52 52 17.75 52.11 18 Z" stroke-linecap="round" />
</g>
		<g transform="matrix(1 0 0 1 -47.94 1.69)"  >
<path style="stroke: none; stroke-width: 1; stroke-dasharray: none; stroke-linecap: butt; stroke-dashoffset: 0; stroke-linejoin: miter; stroke-miterlimit: 4; fill: rgb(64,198,243); fill-rule: nonzero; opacity: 0.68;" vector-effect="non-scaling-stroke"  transform=" translate(-52.26, -17.74)" d="M 52.11 18 L 52.11 18 C 52.339999999999996 18.12 52.45 18 52.57 17.89 L 52.57 17.89 C 52.432094298875576 17.677437017159576 52.228383648072956 17.5158733975575 51.99 17.43 C 51.88 17.52 52 17.75 52.11 18 Z" stroke-linecap="round" />
</g>
		<g transform="matrix(1 0 0 1 -50.08 1.76)"  >
<path style="stroke: none; stroke-width: 1; stroke-dasharray: none; stroke-linecap: butt; stroke-dashoffset: 0; stroke-linejoin: miter; stroke-miterlimit: 4; fill: rgb(242,242,242); fill-rule: nonzero; opacity: 1;" vector-effect="non-scaling-stroke"  transform=" translate(-50.12, -17.81)" d="M 51.08 17.87 C 50.96 17.87 50.96 17.75 51.08 17.87 C 50.85 17.52 50.85 17.41 50.85 17.290000000000003 L 50.730000000000004 17.290000000000003 C 50.36455168035311 17.496117608064615 49.90929588735441 17.45218941751211 49.59 17.180000000000003 C 49.59 17.180000000000003 49.470000000000006 17.180000000000003 49.470000000000006 17.290000000000003 C 49.29373927672831 17.42166022074163 49.18127674505689 17.621634575627986 49.160328389895604 17.84064010685958 C 49.13938003473432 18.059645638091176 49.21189418857516 18.27731341507001 49.36000000000001 18.44 L 50.620000000000005 18.44 C 50.83185905227536 18.3057729955068 50.99354145287337 18.10542741215709 51.08 17.87 Z" stroke-linecap="round" />
</g>
		<g transform="matrix(1 0 0 1 -50.08 1.76)"  >
<path style="stroke: none; stroke-width: 1; stroke-dasharray: none; stroke-linecap: butt; stroke-dashoffset: 0; stroke-linejoin: miter; stroke-miterlimit: 4; fill: rgb(119,76,158); fill-rule: nonzero; opacity: 0.68;" vector-effect="non-scaling-stroke"  transform=" translate(-50.12, -17.81)" d="M 51.08 17.87 C 50.96 17.87 50.96 17.75 51.08 17.87 C 50.85 17.52 50.85 17.41 50.85 17.290000000000003 L 50.730000000000004 17.290000000000003 C 50.36455168035311 17.496117608064615 49.90929588735441 17.45218941751211 49.59 17.180000000000003 C 49.59 17.180000000000003 49.470000000000006 17.180000000000003 49.470000000000006 17.290000000000003 C 49.29373927672831 17.42166022074163 49.18127674505689 17.621634575627986 49.160328389895604 17.84064010685958 C 49.13938003473432 18.059645638091176 49.21189418857516 18.27731341507001 49.36000000000001 18.44 L 50.620000000000005 18.44 C 50.83185905227536 18.3057729955068 50.99354145287337 18.10542741215709 51.08 17.87 Z" stroke-linecap="round" />
</g>
		<g transform="matrix(1 0 0 1 -50.08 1.76)"  >
<path style="stroke: none; stroke-width: 1; stroke-dasharray: none; stroke-linecap: butt; stroke-dashoffset: 0; stroke-linejoin: miter; stroke-miterlimit: 4; fill: rgb(64,198,243); fill-rule: nonzero; opacity: 0.68;" vector-effect="non-scaling-stroke"  transform=" translate(-50.12, -17.81)" d="M 51.08 17.87 C 50.96 17.87 50.96 17.75 51.08 17.87 C 50.85 17.52 50.85 17.41 50.85 17.290000000000003 L 50.730000000000004 17.290000000000003 C 50.36455168035311 17.496117608064615 49.90929588735441 17.45218941751211 49.59 17.180000000000003 C 49.59 17.180000000000003 49.470000000000006 17.180000000000003 49.470000000000006 17.290000000000003 C 49.29373927672831 17.42166022074163 49.18127674505689 17.621634575627986 49.160328389895604 17.84064010685958 C 49.13938003473432 18.059645638091176 49.21189418857516 18.27731341507001 49.36000000000001 18.44 L 50.620000000000005 18.44 C 50.83185905227536 18.3057729955068 50.99354145287337 18.10542741215709 51.08 17.87 Z" stroke-linecap="round" />
</g>
		<g transform="matrix(1 0 0 1 -50.02 1.17)"  >
<path style="stroke: none; stroke-width: 1; stroke-dasharray: none; stroke-linecap: butt; stroke-dashoffset: 0; stroke-linejoin: miter; stroke-miterlimit: 4; fill: rgb(242,242,242); fill-rule: nonzero; opacity: 1;" vector-effect="non-scaling-stroke"  transform=" translate(-50.17, -17.22)" d="M 50.73 17.29 L 50.73 17.29 C 50.73 17.18 50.73 17.18 50.62 17.07 C 50.28379697011194 16.992895772146028 49.93140405404459 17.031658992913435 49.62 17.18 C 49.9332860606638 17.438782962039014 50.372015919193245 17.482260695767156 50.73 17.29 Z" stroke-linecap="round" />
</g>
		<g transform="matrix(1 0 0 1 -50.02 1.17)"  >
<path style="stroke: none; stroke-width: 1; stroke-dasharray: none; stroke-linecap: butt; stroke-dashoffset: 0; stroke-linejoin: miter; stroke-miterlimit: 4; fill: rgb(238,59,36); fill-rule: nonzero; opacity: 0.68;" vector-effect="non-scaling-stroke"  transform=" translate(-50.17, -17.22)" d="M 50.73 17.29 L 50.73 17.29 C 50.73 17.18 50.73 17.18 50.62 17.07 C 50.28379697011194 16.992895772146028 49.93140405404459 17.031658992913435 49.62 17.18 C 49.9332860606638 17.438782962039014 50.372015919193245 17.482260695767156 50.73 17.29 Z" stroke-linecap="round" />
</g>
		<g transform="matrix(1 0 0 1 -50.02 1.17)"  >
<path style="stroke: none; stroke-width: 1; stroke-dasharray: none; stroke-linecap: butt; stroke-dashoffset: 0; stroke-linejoin: miter; stroke-miterlimit: 4; fill: rgb(119,76,158); fill-rule: nonzero; opacity: 0.68;" vector-effect="non-scaling-stroke"  transform=" translate(-50.17, -17.22)" d="M 50.73 17.29 L 50.73 17.29 C 50.73 17.18 50.73 17.18 50.62 17.07 C 50.28379697011194 16.992895772146028 49.93140405404459 17.031658992913435 49.62 17.18 C 49.9332860606638 17.438782962039014 50.372015919193245 17.482260695767156 50.73 17.29 Z" stroke-linecap="round" />
</g>
		<g transform="matrix(1 0 0 1 -50.02 1.17)"  >
<path style="stroke: none; stroke-width: 1; stroke-dasharray: none; stroke-linecap: butt; stroke-dashoffset: 0; stroke-linejoin: miter; stroke-miterlimit: 4; fill: rgb(64,198,243); fill-rule: nonzero; opacity: 0.68;" vector-effect="non-scaling-stroke"  transform=" translate(-50.17, -17.22)" d="M 50.73 17.29 L 50.73 17.29 C 50.73 17.18 50.73 17.18 50.62 17.07 C 50.28379697011194 16.992895772146028 49.93140405404459 17.031658992913435 49.62 17.18 C 49.9332860606638 17.438782962039014 50.372015919193245 17.482260695767156 50.73 17.29 Z" stroke-linecap="round" />
</g>
		<g transform="matrix(1 0 0 1 -49.22 1.47)"  >
<path style="stroke: none; stroke-width: 1; stroke-dasharray: none; stroke-linecap: butt; stroke-dashoffset: 0; stroke-linejoin: miter; stroke-miterlimit: 4; fill: rgb(242,242,242); fill-rule: nonzero; opacity: 1;" vector-effect="non-scaling-stroke"  transform=" translate(-50.98, -17.52)" d="M 50.85 17.29 L 50.85 17.29 C 50.78316399580131 17.358778868752992 50.756178963355325 17.4569796625443 50.778483673318036 17.550253904206556 C 50.800788383280754 17.64352814586881 50.8692793725729 17.718897717070565 50.96 17.75 L 51.08 17.87 C 51.166699644292535 17.733122959309043 51.205398401959926 17.571291790881766 51.19 17.41 L 51.19 17.18 L 51.08 17.18 C 51 17.18 50.85 17.18 50.85 17.29 Z" stroke-linecap="round" />
</g>
		<g transform="matrix(1 0 0 1 -49.22 1.47)"  >
<path style="stroke: none; stroke-width: 1; stroke-dasharray: none; stroke-linecap: butt; stroke-dashoffset: 0; stroke-linejoin: miter; stroke-miterlimit: 4; fill: rgb(249,164,44); fill-rule: nonzero; opacity: 0.68;" vector-effect="non-scaling-stroke"  transform=" translate(-50.98, -17.52)" d="M 50.85 17.29 L 50.85 17.29 C 50.78316399580131 17.358778868752992 50.756178963355325 17.4569796625443 50.778483673318036 17.550253904206556 C 50.800788383280754 17.64352814586881 50.8692793725729 17.718897717070565 50.96 17.75 L 51.08 17.87 C 51.166699644292535 17.733122959309043 51.205398401959926 17.571291790881766 51.19 17.41 L 51.19 17.18 L 51.08 17.18 C 51 17.18 50.85 17.18 50.85 17.29 Z" stroke-linecap="round" />
</g>
		<g transform="matrix(1 0 0 1 -49.22 1.47)"  >
<path style="stroke: none; stroke-width: 1; stroke-dasharray: none; stroke-linecap: butt; stroke-dashoffset: 0; stroke-linejoin: miter; stroke-miterlimit: 4; fill: rgb(119,76,158); fill-rule: nonzero; opacity: 0.68;" vector-effect="non-scaling-stroke"  transform=" translate(-50.98, -17.52)" d="M 50.85 17.29 L 50.85 17.29 C 50.78316399580131 17.358778868752992 50.756178963355325 17.4569796625443 50.778483673318036 17.550253904206556 C 50.800788383280754 17.64352814586881 50.8692793725729 17.718897717070565 50.96 17.75 L 51.08 17.87 C 51.166699644292535 17.733122959309043 51.205398401959926 17.571291790881766 51.19 17.41 L 51.19 17.18 L 51.08 17.18 C 51 17.18 50.85 17.18 50.85 17.29 Z" stroke-linecap="round" />
</g>
		<g transform="matrix(1 0 0 1 -49.22 1.47)"  >
<path style="stroke: none; stroke-width: 1; stroke-dasharray: none; stroke-linecap: butt; stroke-dashoffset: 0; stroke-linejoin: miter; stroke-miterlimit: 4; fill: rgb(64,198,243); fill-rule: nonzero; opacity: 0.68;" vector-effect="non-scaling-stroke"  transform=" translate(-50.98, -17.52)" d="M 50.85 17.29 L 50.85 17.29 C 50.78316399580131 17.358778868752992 50.756178963355325 17.4569796625443 50.778483673318036 17.550253904206556 C 50.800788383280754 17.64352814586881 50.8692793725729 17.718897717070565 50.96 17.75 L 51.08 17.87 C 51.166699644292535 17.733122959309043 51.205398401959926 17.571291790881766 51.19 17.41 L 51.19 17.18 L 51.08 17.18 C 51 17.18 50.85 17.18 50.85 17.29 Z" stroke-linecap="round" />
</g>
		<g transform="matrix(1 0 0 1 -49.35 1.07)"  >
<path style="stroke: none; stroke-width: 1; stroke-dasharray: none; stroke-linecap: butt; stroke-dashoffset: 0; stroke-linejoin: miter; stroke-miterlimit: 4; fill: rgb(242,242,242); fill-rule: nonzero; opacity: 1;" vector-effect="non-scaling-stroke"  transform=" translate(-50.84, -17.13)" d="M 50.73 17.07 C 50.73 17.18 50.849999999999994 17.18 50.849999999999994 17.18 C 50.91075132248138 17.18 50.959999999999994 17.130751322481387 50.959999999999994 17.07 C 50.894968430800766 17.129733546326012 50.795031569199224 17.129733546326012 50.73 17.07 Z" stroke-linecap="round" />
</g>
		<g transform="matrix(1 0 0 1 -49.35 1.07)"  >
<path style="stroke: none; stroke-width: 1; stroke-dasharray: none; stroke-linecap: butt; stroke-dashoffset: 0; stroke-linejoin: miter; stroke-miterlimit: 4; fill: rgb(238,59,36); fill-rule: nonzero; opacity: 0.68;" vector-effect="non-scaling-stroke"  transform=" translate(-50.84, -17.13)" d="M 50.73 17.07 C 50.73 17.18 50.849999999999994 17.18 50.849999999999994 17.18 C 50.91075132248138 17.18 50.959999999999994 17.130751322481387 50.959999999999994 17.07 C 50.894968430800766 17.129733546326012 50.795031569199224 17.129733546326012 50.73 17.07 Z" stroke-linecap="round" />
</g>
		<g transform="matrix(1 0 0 1 -49.35 1.07)"  >
<path style="stroke: none; stroke-width: 1; stroke-dasharray: none; stroke-linecap: butt; stroke-dashoffset: 0; stroke-linejoin: miter; stroke-miterlimit: 4; fill: rgb(249,164,44); fill-rule: nonzero; opacity: 0.68;" vector-effect="non-scaling-stroke"  transform=" translate(-50.84, -17.13)" d="M 50.73 17.07 C 50.73 17.18 50.849999999999994 17.18 50.849999999999994 17.18 C 50.91075132248138 17.18 50.959999999999994 17.130751322481387 50.959999999999994 17.07 C 50.894968430800766 17.129733546326012 50.795031569199224 17.129733546326012 50.73 17.07 Z" stroke-linecap="round" />
</g>
		<g transform="matrix(1 0 0 1 -49.35 1.07)"  >
<path style="stroke: none; stroke-width: 1; stroke-dasharray: none; stroke-linecap: butt; stroke-dashoffset: 0; stroke-linejoin: miter; stroke-miterlimit: 4; fill: rgb(119,76,158); fill-rule: nonzero; opacity: 0.68;" vector-effect="non-scaling-stroke"  transform=" translate(-50.84, -17.13)" d="M 50.73 17.07 C 50.73 17.18 50.849999999999994 17.18 50.849999999999994 17.18 C 50.91075132248138 17.18 50.959999999999994 17.130751322481387 50.959999999999994 17.07 C 50.894968430800766 17.129733546326012 50.795031569199224 17.129733546326012 50.73 17.07 Z" stroke-linecap="round" />
</g>
		<g transform="matrix(1 0 0 1 -49.35 1.07)"  >
<path style="stroke: none; stroke-width: 1; stroke-dasharray: none; stroke-linecap: butt; stroke-dashoffset: 0; stroke-linejoin: miter; stroke-miterlimit: 4; fill: rgb(64,198,243); fill-rule: nonzero; opacity: 0.68;" vector-effect="non-scaling-stroke"  transform=" translate(-50.84, -17.13)" d="M 50.73 17.07 C 50.73 17.18 50.849999999999994 17.18 50.849999999999994 17.18 C 50.91075132248138 17.18 50.959999999999994 17.130751322481387 50.959999999999994 17.07 C 50.894968430800766 17.129733546326012 50.795031569199224 17.129733546326012 50.73 17.07 Z" stroke-linecap="round" />
</g>
		<g transform="matrix(1 0 0 1 -48.87 -6.14)"  >
<path style="stroke: none; stroke-width: 1; stroke-dasharray: none; stroke-linecap: butt; stroke-dashoffset: 0; stroke-linejoin: miter; stroke-miterlimit: 4; fill: rgb(255,205,204); fill-rule: nonzero; opacity: 0.49;" vector-effect="non-scaling-stroke"  transform=" translate(-51.33, -9.91)" d="M 51.54 8.71 C 50.73 9.16 51.54 9.850000000000001 51.65 10.420000000000002 C 51.75345078086437 10.6752649220022 51.65591957789282 10.967858530916864 51.42 11.110000000000001 C 51.760000000000005 10.65 51.42 10.31 51.190000000000005 9.850000000000001 C 50.993194425916364 9.681735239178419 50.91502842283168 9.41271085790391 50.991023887642015 9.165182772521671 C 51.067019352452355 8.917654687139432 51.282679755017604 8.738840167248673 51.540000000000006 8.71 Z" stroke-linecap="round" />
</g>
		<g transform="matrix(1 0 0 1 -48.17 -5.74)"  >
<path style="stroke: none; stroke-width: 1; stroke-dasharray: none; stroke-linecap: butt; stroke-dashoffset: 0; stroke-linejoin: miter; stroke-miterlimit: 4; fill: rgb(255,205,204); fill-rule: nonzero; opacity: 0.49;" vector-effect="non-scaling-stroke"  transform=" translate(-52.03, -10.31)" d="M 52.11 9.51 C 51.65 9.97 52.339999999999996 10.42 52.22 10.879999999999999 C 52.22 10.999999999999998 52.11 10.999999999999998 52.11 11.11 C 52.160873139595815 11.068211486288462 52.19035759956231 11.005835827712232 52.19035759956231 10.94 C 52.19035759956231 10.874164172287767 52.160873139595815 10.811788513711537 52.11 10.77 C 51.99 10.309999999999999 51.54 9.77 52.11 9.51 Z" stroke-linecap="round" />
</g>
		<g transform="matrix(1 0 0 1 -49.35 -5.57)"  >
<path style="stroke: none; stroke-width: 1; stroke-dasharray: none; stroke-linecap: butt; stroke-dashoffset: 0; stroke-linejoin: miter; stroke-miterlimit: 4; fill: rgb(255,205,204); fill-rule: nonzero; opacity: 0.49;" vector-effect="non-scaling-stroke"  transform=" translate(-50.85, -10.48)" d="M 51 9.74 C 50.66 9.97 50.66 10.19 50.89 10.42 C 51.120000000000005 10.65 51.35 11.11 50.89 11.22 C 51.12 10.88 50.89 10.770000000000001 50.660000000000004 10.42 C 50.43000000000001 10.069999999999999 50.540000000000006 9.74 51.00000000000001 9.74 Z" stroke-linecap="round" />
</g>
		<g transform="matrix(1 0 0 1 -42.48 2.5)"  >
<linearGradient id="SVGID_linear-gradient-2_4" gradientUnits="userSpaceOnUse" gradientTransform="matrix(1 0 0 1 0 -38)"  x1="56.64" y1="56.55" x2="58.56" y2="56.55">
<stop offset="0%" style="stop-color:rgb(246,147,83);stop-opacity: 1"/>
<stop offset="50%" style="stop-color:rgb(243,117,33);stop-opacity: 1"/>
<stop offset="100%" style="stop-color:rgb(212,98,42);stop-opacity: 1"/>
</linearGradient>
<path style="stroke: none; stroke-width: 1; stroke-dasharray: none; stroke-linecap: butt; stroke-dashoffset: 0; stroke-linejoin: miter; stroke-miterlimit: 4; fill: url(#SVGID_linear-gradient-2_4); fill-rule: nonzero; opacity: 1;" vector-effect="non-scaling-stroke"  transform=" translate(-57.72, -18.55)" d="M 56.69 18.55 L 56.69 18.55 C 56.69510225534399 18.67485102265409 56.79514897734591 18.774897744656005 56.919999999999995 18.78 L 58.519999999999996 18.78 C 58.64485102265408 18.774897744656005 58.744897744656 18.67485102265409 58.74999999999999 18.55 L 58.74999999999999 18.55 C 58.73997641212872 18.429066040220185 58.64125985069237 18.334641503194117 58.519999999999996 18.330000000000002 L 56.919999999999995 18.330000000000002 C 56.69 18.33 56.69 18.44 56.69 18.55 Z" stroke-linecap="round" />
</g>
		<g transform="matrix(1 0 0 1 -54.85 2.5)"  >
<linearGradient id="SVGID_linear-gradient-3_5" gradientUnits="userSpaceOnUse" gradientTransform="matrix(1 0 0 1 0 -38)"  x1="44.31" y1="56.55" x2="46.23" y2="56.55">
<stop offset="0%" style="stop-color:rgb(246,147,83);stop-opacity: 1"/>
<stop offset="50%" style="stop-color:rgb(243,117,33);stop-opacity: 1"/>
<stop offset="100%" style="stop-color:rgb(212,98,42);stop-opacity: 1"/>
</linearGradient>
<path style="stroke: none; stroke-width: 1; stroke-dasharray: none; stroke-linecap: butt; stroke-dashoffset: 0; stroke-linejoin: miter; stroke-miterlimit: 4; fill: url(#SVGID_linear-gradient-3_5); fill-rule: nonzero; opacity: 1;" vector-effect="non-scaling-stroke"  transform=" translate(-45.35, -18.55)" d="M 44.32 18.55 L 44.32 18.55 C 44.32949341209111 18.672878690692876 44.427121309307125 18.770506587908887 44.55 18.78 L 46.15 18.78 C 46.27485102265408 18.774897744656005 46.374897744656 18.67485102265409 46.379999999999995 18.55 L 46.379999999999995 18.55 C 46.36997641212872 18.429066040220185 46.271259850692374 18.334641503194117 46.15 18.330000000000002 L 44.55 18.330000000000002 C 44.43052568018311 18.338756225787158 44.33405493078811 18.431032594773672 44.32 18.55 Z" stroke-linecap="round" />
</g>
		<g transform="matrix(1 0 0 1 -1.14 0.55)"  >
<path style="stroke: none; stroke-width: 1; stroke-dasharray: none; stroke-linecap: butt; stroke-dashoffset: 0; stroke-linejoin: miter; stroke-miterlimit: 4; fill: rgb(255,255,255); fill-rule: nonzero; opacity: 0.11;" vector-effect="non-scaling-stroke"  transform=" translate(-99.06, -16.61)" d="M 45.92 6.87 L 152.2 6.87 C 153.45999666078728 6.824097373885111 154.68654806012998 7.281026272200043 155.60940829521994 8.140111612995161 C 156.5322685303099 8.999196953790282 157.07571132416098 10.189945576781781 157.11999999999998 11.449999999999992 L 157.11999999999998 21.76 C 157.07571132416098 23.020054423218212 156.5322685303099 24.210803046209715 155.60940829521994 25.069888387004838 C 154.68654806012998 25.928973727799956 153.45999666078728 26.38590262611489 152.2 26.340000000000003 L 45.92 26.340000000000003 C 44.660003339212714 26.385902626114895 43.433451939870004 25.928973727799963 42.51059170478005 25.069888387004845 C 41.58773146969009 24.210803046209723 41.04428867583899 23.020054423218216 41 21.76 L 41 11.45 C 41.1293390405272 8.842988198981018 43.31041211833296 6.812639683462645 45.92 6.87 Z" stroke-linecap="round" />
</g>
		<g transform="matrix(1 0 0 1 0.66 -2.94)"  >
<path style="stroke: none; stroke-width: 1; stroke-dasharray: none; stroke-linecap: butt; stroke-dashoffset: 0; stroke-linejoin: miter; stroke-miterlimit: 4; fill: rgb(255,255,255); fill-rule: nonzero; opacity: 1;" vector-effect="non-scaling-stroke"  transform=" translate(-100.86, -13.12)" d="M 102.72 10.65 L 102.72 15.58 L 101.58 15.58 L 101.58 14.32 L 100.09 14.32 L 100.09 15.58 L 99 15.58 L 99 10.65 L 100.14 10.65 L 100.14 13.06 L 101.63 13.06 L 101.63 10.65 Z" stroke-linecap="round" />
</g>
		<g transform="matrix(1 0 0 1 5.12 -2.94)"  >
<path style="stroke: none; stroke-width: 1; stroke-dasharray: none; stroke-linecap: butt; stroke-dashoffset: 0; stroke-linejoin: miter; stroke-miterlimit: 4; fill: rgb(255,255,255); fill-rule: nonzero; opacity: 1;" vector-effect="non-scaling-stroke"  transform=" translate(-105.32, -13.11)" d="M 107.19 12.37 C 107.21583201687366 12.641587982916615 107.17817421927357 12.91546287455363 107.08 13.17 C 106.99098681630949 13.375653285381562 106.87313677355449 13.56758049786825 106.73 13.74 C 106.55758049786826 13.883136773554497 106.36565328538157 14.00098681630948 106.16000000000001 14.09 C 105.98393779721931 14.178993410792696 105.78653421585524 14.217088838775236 105.59000000000002 14.2 L 104.59000000000002 14.2 L 104.59000000000002 15.579999999999998 L 103.44000000000001 15.579999999999998 L 103.44000000000001 10.65 L 105.62000000000002 10.65 C 106.05231612038807 10.60798295845299 106.47791128519874 10.779714340745018 106.76000000000002 11.110000000000001 C 107.10354185564225 11.432621292650722 107.26463680010892 11.904666943878652 107.19 12.37 Z M 105.47 13.059999999999999 C 105.59 13.059999999999999 105.7 13.059999999999999 105.7 12.94 C 105.73086394947966 12.942817748241819 105.76148454524802 12.93248479506537 105.78433065254204 12.911542530045857 C 105.80717675983605 12.890600265026345 105.82012835735023 12.860992041027137 105.82000000000001 12.83 C 105.82000000000001 12.71 105.93 12.71 105.93 12.6 L 105.93 12.139999999999999 C 105.93 12.03 105.93 12.03 105.82000000000001 11.909999999999998 L 105.7 11.799999999999999 C 105.59 11.799999999999999 105.59 11.68 105.47 11.68 L 104.56 11.68 L 104.56 12.94 L 105.47 12.94 Z" stroke-linecap="round" />
</g>
		<g transform="matrix(1 0 0 1 9.33 -3.01)"  >
<path style="stroke: none; stroke-width: 1; stroke-dasharray: none; stroke-linecap: butt; stroke-dashoffset: 0; stroke-linejoin: miter; stroke-miterlimit: 4; fill: rgb(255,255,255); fill-rule: nonzero; opacity: 1;" vector-effect="non-scaling-stroke"  transform=" translate(-109.53, -13.04)" d="M 108.34 14.09 C 108.42449127524596 14.097926342891109 108.50296416053955 14.137162785537905 108.56 14.2 C 108.68 14.2 108.68 14.319999999999999 108.79 14.319999999999999 C 108.9 14.319999999999999 109.02000000000001 14.429999999999998 109.14 14.429999999999998 L 109.94 14.429999999999998 L 110.05 14.319999999999999 L 110.05 14.2 C 110.05 14.09 110.05 13.969999999999999 109.94 13.969999999999999 C 109.83 13.969999999999999 109.71 13.86 109.6 13.739999999999998 L 108.91 13.519999999999998 C 108.6745725878429 13.433541452873369 108.4742270044932 13.271859052275358 108.34 13.059999999999997 C 108.1945306616012 12.818105789821686 108.1152129034084 12.542217935238044 108.11 12.259999999999996 C 108.09258881942486 12.02457869729846 108.13025042700338 11.788337704306034 108.22 11.569999999999997 C 108.30653793827834 11.398563306671553 108.42149830196084 11.243028696983481 108.56 11.109999999999996 C 108.68 10.999999999999996 108.91 10.879999999999995 109.02 10.769999999999996 C 109.19678032480552 10.672350054208009 109.39898478608431 10.63051464842619 109.6 10.649999999999997 C 109.87221506210865 10.63147401534802 110.14520055959352 10.67242183997075 110.39999999999999 10.769999999999996 L 111.08 11.109999999999996 L 110.51 12.029999999999996 C 110.4 11.909999999999997 110.28 11.909999999999997 110.05000000000001 11.799999999999995 C 109.91475049523368 11.717348600875233 109.75844528793003 11.675667212260931 109.60000000000001 11.679999999999996 L 109.48 11.679999999999996 C 109.44900795897287 11.679871642649779 109.41939973497367 11.692823240163948 109.39845746995415 11.715669347457961 C 109.37751520493464 11.738515454751974 109.3671822517582 11.76913605052034 109.37 11.799999999999995 C 109.37 11.909999999999995 109.25 11.909999999999995 109.25 11.909999999999995 L 109.25 12 C 109.25 12.11 109.25 12.23 109.37 12.23 C 109.49000000000001 12.23 109.60000000000001 12.34 109.71000000000001 12.450000000000001 L 110.4 12.680000000000001 C 110.63000000000001 12.8 110.74000000000001 12.8 110.85000000000001 12.910000000000002 C 110.96000000000001 13.020000000000003 111.08000000000001 13.140000000000002 111.08000000000001 13.260000000000002 C 111.08000000000001 13.38 111.20000000000002 13.490000000000002 111.20000000000002 13.600000000000001 L 111.20000000000002 13.830000000000002 C 111.21910445067479 14.066452131794168 111.17781243201155 14.303881239107803 111.08000000000001 14.520000000000001 C 110.99438874585776 14.689062823663795 110.87924428184898 14.841459908381287 110.74000000000001 14.97 C 110.56758049786826 15.113136773554498 110.37565328538157 15.23098681630948 110.17000000000002 15.32 C 109.95166229569398 15.409749572996628 109.71542130270156 15.44741118057513 109.48000000000002 15.43 L 109 15.43 C 108.89 15.43 108.77 15.32 108.54 15.32 C 108.31000000000002 15.32 108.32000000000001 15.200000000000001 108.2 15.200000000000001 C 108.08 15.200000000000001 107.97 15.090000000000002 107.86 14.97 Z" stroke-linecap="round" />
</g>
		<g transform="matrix(1 0 0 1 13.23 -3.01)"  >
<path style="stroke: none; stroke-width: 1; stroke-dasharray: none; stroke-linecap: butt; stroke-dashoffset: 0; stroke-linejoin: miter; stroke-miterlimit: 4; fill: rgb(255,255,255); fill-rule: nonzero; opacity: 1;" vector-effect="non-scaling-stroke"  transform=" translate(-113.43, -13.04)" d="M 112.23 14.09 C 112.31727726139707 14.098260824445958 112.39878600027745 14.137243264780059 112.46000000000001 14.2 C 112.57000000000001 14.2 112.57000000000001 14.319999999999999 112.69000000000001 14.319999999999999 C 112.81000000000002 14.319999999999999 112.92000000000002 14.429999999999998 113.03000000000002 14.429999999999998 L 113.83000000000001 14.429999999999998 L 113.95000000000002 14.319999999999999 L 113.95000000000002 14.2 C 113.95000000000002 14.09 113.95000000000002 13.969999999999999 113.83000000000001 13.969999999999999 C 113.71000000000001 13.969999999999999 113.60000000000001 13.86 113.49000000000001 13.739999999999998 L 112.80000000000001 13.519999999999998 C 112.56457258784292 13.433541452873369 112.36422700449322 13.271859052275358 112.23000000000002 13.059999999999997 C 112.08453066160122 12.818105789821686 112.00521290340842 12.542217935238044 112.00000000000001 12.259999999999996 C 111.95098768645273 11.823809608932816 112.123687365316 11.392060411774665 112.46000000000001 11.109999999999996 C 112.57000000000001 10.999999999999996 112.80000000000001 10.879999999999995 112.92 10.769999999999996 C 113.09388227823445 10.674323197669745 113.2923016977584 10.632550688296279 113.49 10.649999999999997 C 113.76224099303192 10.630824083122283 114.03536645904606 10.671792903024404 114.28999999999999 10.769999999999996 L 114.97999999999999 11.109999999999996 L 114.39999999999999 12.029999999999996 C 114.28999999999999 11.909999999999997 114.17999999999999 11.909999999999997 113.94999999999999 11.799999999999995 C 113.81609821792499 11.705958700964286 113.65277695061386 11.663353152970076 113.49 11.679999999999996 L 113.36999999999999 11.679999999999996 C 113.33900795897286 11.679871642649779 113.30939973497365 11.692823240163948 113.28845746995414 11.715669347457961 C 113.26751520493463 11.738515454751974 113.25718225175818 11.76913605052034 113.25999999999999 11.799999999999995 C 113.25999999999999 11.860751322481383 113.21075132248137 11.909999999999995 113.14999999999999 11.909999999999995 L 113.14999999999999 12 C 113.14999999999999 12.11 113.14999999999999 12.23 113.25999999999999 12.23 C 113.36999999999999 12.23 113.49 12.34 113.6 12.450000000000001 L 114.28999999999999 12.680000000000001 C 114.52 12.8 114.63 12.8 114.74999999999999 12.910000000000002 C 114.86999999999998 13.020000000000003 114.97999999999999 13.140000000000002 114.97999999999999 13.260000000000002 C 114.97999999999999 13.38 115.08999999999999 13.490000000000002 115.08999999999999 13.600000000000001 L 115.08999999999999 13.830000000000002 C 115.10741118057513 14.065421302701537 115.06974957299661 14.301662295693966 114.97999999999999 14.520000000000003 C 114.89121235031317 14.689742577730431 114.7726643077235 14.842161489631431 114.63 14.97 C 114.45758049786825 15.113136773554498 114.26565328538156 15.23098681630948 114.06 15.32 C 113.84166229569396 15.409749572996628 113.60542130270154 15.44741118057513 113.37 15.43 L 112.92 15.43 C 112.8 15.43 112.69 15.32 112.46000000000001 15.32 C 112.23000000000002 15.32 112.23 15.200000000000001 112.11000000000001 15.200000000000001 C 111.99000000000002 15.200000000000001 111.89000000000001 15.090000000000002 111.77000000000001 14.97 Z" stroke-linecap="round" />
</g>
		<g transform="matrix(1 0 0 1 17.47 -2.99)"  >
<path style="stroke: none; stroke-width: 1; stroke-dasharray: none; stroke-linecap: butt; stroke-dashoffset: 0; stroke-linejoin: miter; stroke-miterlimit: 4; fill: rgb(255,255,255); fill-rule: nonzero; opacity: 1;" vector-effect="non-scaling-stroke"  transform=" translate(-117.66, -13.06)" d="M 118.18 14.43 C 118.49838613578133 14.411768091333439 118.8104913349381 14.333741791544245 119.10000000000001 14.2 L 119.67 15.12 L 118.99 15.459999999999999 C 118.73437209033848 15.567424898008962 118.45579392960884 15.608695736635577 118.17999999999999 15.579999999999998 C 117.86369727119603 15.56937559187293 117.55336578048902 15.490940160155771 117.27 15.349999999999998 C 116.9604222206747 15.224082306428084 116.68593551150951 15.02507944228332 116.47 14.769999999999998 C 116.21279759197873 14.55604209361167 116.01337800701876 14.280980597115152 115.89 13.969999999999997 C 115.7621250263548 13.68195911807284 115.68434192236656 13.374208576206374 115.66 13.059999999999997 C 115.66950807114446 12.74034692624763 115.74796449865578 12.426521216202424 115.89 12.139999999999997 C 116.01860086093826 11.831919865914251 116.21717826397919 11.558019999650892 116.47 11.339999999999996 C 116.68513581939501 11.086449856666635 116.9600953182595 10.890541213725678 117.27 10.769999999999996 C 117.55641084519792 10.637466425991706 117.86501221194403 10.559468278352574 118.17999999999999 10.539999999999996 C 118.45463717513809 10.522190932206776 118.73005871758727 10.559593857724563 118.99 10.649999999999995 L 119.67 10.999999999999995 L 119.10000000000001 11.909999999999995 C 118.99000000000001 11.799999999999995 118.87 11.799999999999995 118.64000000000001 11.679999999999994 C 118.41000000000003 11.559999999999993 118.30000000000001 11.569999999999995 118.18000000000002 11.569999999999995 C 117.9834657841448 11.552911161224758 117.78606220278073 11.591006589207298 117.61000000000003 11.679999999999994 C 117.50000000000003 11.799999999999994 117.27000000000002 11.799999999999994 117.15000000000003 12.029999999999994 C 117.01082011424876 12.138822093230047 116.92667526386154 12.303453322248505 116.92000000000003 12.479999999999993 C 116.92000000000003 12.709999999999994 116.81000000000003 12.829999999999993 116.81000000000003 13.059999999999993 C 116.7929111612248 13.256534215855213 116.83100658920733 13.453937797219288 116.92000000000003 13.629999999999994 C 117.04000000000003 13.859999999999994 117.04000000000003 13.969999999999994 117.15000000000003 14.089999999999995 C 117.28250451334387 14.229096876689589 117.4381481164135 14.34413780069757 117.61000000000003 14.429999999999993 C 117.84 14.55 118 14.43 118.18 14.43 Z" stroke-linecap="round" />
</g>
		<g transform="matrix(1 0 0 1 -11.85 3.78)"  >
<path style="stroke: none; stroke-width: 1; stroke-dasharray: none; stroke-linecap: butt; stroke-dashoffset: 0; stroke-linejoin: miter; stroke-miterlimit: 4; fill: rgb(255,255,255); fill-rule: nonzero; opacity: 1;" vector-effect="non-scaling-stroke"  transform=" translate(-88.35, -19.84)" d="M 88.18 18 L 88.52000000000001 18 L 89.33000000000001 20.86 L 90 18 L 90.58 18 L 89.58 21.67 L 89 21.67 L 88.3 19 L 87.61 21.64 L 87 21.64 L 86.12 18 L 86.69 18 L 87.38 20.86 Z" stroke-linecap="round" />
</g>
		<g transform="matrix(1 0 0 1 -7.97 3.72)"  >
<path style="stroke: none; stroke-width: 1; stroke-dasharray: none; stroke-linecap: butt; stroke-dashoffset: 0; stroke-linejoin: miter; stroke-miterlimit: 4; fill: rgb(255,255,255); fill-rule: nonzero; opacity: 1;" vector-effect="non-scaling-stroke"  transform=" translate(-92.23, -19.77)" d="M 91 18 L 91.58 18 L 91.58 21.67 L 91 21.67 Z M 91.23 19.72 L 92.38000000000001 19.72 C 92.50595693254267 19.736243118407383 92.6321430529902 19.69170684060237 92.72000000000001 19.599999999999998 C 92.84000000000002 19.599999999999998 92.84000000000002 19.49 92.95000000000002 19.38 C 93.06000000000002 19.27 93.06000000000002 19.15 93.06000000000002 19.029999999999998 C 93.0757804525306 18.905942073295204 93.03545661514828 18.781304757749872 92.95000000000002 18.689999999999998 C 92.95000000000002 18.569999999999997 92.84000000000002 18.569999999999997 92.72000000000001 18.459999999999997 C 92.60000000000001 18.349999999999998 92.49000000000001 18.349999999999998 92.38000000000001 18.349999999999998 L 91.27 18.349999999999998 L 91.27 17.889999999999997 L 92.42 17.889999999999997 C 92.62024481975823 17.857948108395963 92.82539577136609 17.89685604749401 93 18 C 93.11 18.12 93.34 18.23 93.34 18.35 C 93.34 18.470000000000002 93.46000000000001 18.69 93.46000000000001 18.92 C 93.46000000000001 19.150000000000002 93.46000000000001 19.380000000000003 93.34 19.490000000000002 C 93.22 19.6 93.11 19.830000000000002 93 19.830000000000002 C 92.89 19.830000000000002 92.66 19.950000000000003 92.43 19.950000000000003 L 91.27 19.950000000000003 Z" stroke-linecap="round" />
</g>
		<g transform="matrix(1 0 0 1 -4.39 3.78)"  >
<path style="stroke: none; stroke-width: 1; stroke-dasharray: none; stroke-linecap: butt; stroke-dashoffset: 0; stroke-linejoin: miter; stroke-miterlimit: 4; fill: rgb(255,255,255); fill-rule: nonzero; opacity: 1;" vector-effect="non-scaling-stroke"  transform=" translate(-95.81, -19.84)" d="M 96.88 18 L 97.33999999999999 18 L 97.33999999999999 21.67 L 96.88 21.67 L 96.88 19 L 96 21.19 L 95.65 21.19 L 94.74000000000001 19.130000000000003 L 94.74000000000001 21.650000000000002 L 94.28000000000002 21.650000000000002 L 94.28000000000002 18 L 94.74000000000001 18 L 95.74000000000001 20.41 Z" stroke-linecap="round" />
</g>
		<g transform="matrix(1 0 0 1 0.69 3.84)"  >
<path style="stroke: none; stroke-width: 1; stroke-dasharray: none; stroke-linecap: butt; stroke-dashoffset: 0; stroke-linejoin: miter; stroke-miterlimit: 4; fill: rgb(255,255,255); fill-rule: nonzero; opacity: 1;" vector-effect="non-scaling-stroke"  transform=" translate(-100.89, -19.89)" d="M 100.2 21.53 C 99.99730565318882 21.438976395392352 99.83654734062203 21.274645675879643 99.75 21.07 C 99.65259691625381 20.857296940012017 99.61128472708 20.62319453469378 99.63 20.39 L 99.63 19.39 C 99.61089554932522 19.153547868205834 99.65218756798846 18.9161187608922 99.75 18.7 C 99.83973538928741 18.497495870641742 99.99951674109683 18.334163822125454 100.2 18.24 C 100.41833770430604 18.15025042700337 100.65457869729846 18.112588819424868 100.89 18.13 C 101.08699024791134 18.10032591842827 101.28819756760363 18.139155401175902 101.46 18.24 C 101.58 18.36 101.80999999999999 18.47 101.91999999999999 18.58 C 102.06493262641841 18.73875288445658 102.14674577450964 18.945064301382285 102.14999999999999 19.159999999999997 L 101.58 19.159999999999997 C 101.58 19.039999999999996 101.46 18.929999999999996 101.46 18.809999999999995 L 101.24 18.579999999999995 C 101.11999999999999 18.579999999999995 101.00999999999999 18.469999999999995 100.89 18.469999999999995 C 100.76594207329521 18.454219547469418 100.64130475774988 18.49454338485173 100.55 18.579999999999995 C 100.42999999999999 18.699999999999996 100.32 18.809999999999995 100.32 18.929999999999996 C 100.32 19.049999999999997 100.19999999999999 19.159999999999997 100.19999999999999 19.389999999999997 L 100.19999999999999 20.389999999999997 C 100.19999999999999 20.619999999999997 100.19999999999999 20.729999999999997 100.32 20.839999999999996 C 100.44 20.949999999999996 100.42999999999999 21.069999999999997 100.55 21.189999999999998 C 100.64130475774988 21.27545661514826 100.76594207329521 21.315780452530575 100.89 21.299999999999997 C 101.01699539384579 21.314715591285363 101.14425563928972 21.27471951414584 101.24 21.189999999999998 C 101.35 21.069999999999997 101.46 21.069999999999997 101.46 20.959999999999997 C 101.55036045984373 20.871280070971668 101.59465332559594 20.745783618007042 101.58 20.619999999999997 L 102.14999999999999 20.619999999999997 C 102.14524009661181 20.831655821854127 102.06346602109203 21.034313313359707 101.91999999999999 21.189999999999998 C 101.80999999999999 21.299999999999997 101.68999999999998 21.529999999999998 101.46 21.529999999999998 C 101.28329909344917 21.617829704264555 101.08711386686538 21.659131857229564 100.89 21.65 C 100.55 21.65 100.32 21.65 100.2 21.53 Z" stroke-linecap="round" />
</g>
		<g transform="matrix(1 0 0 1 3.81 3.78)"  >
<path style="stroke: none; stroke-width: 1; stroke-dasharray: none; stroke-linecap: butt; stroke-dashoffset: 0; stroke-linejoin: miter; stroke-miterlimit: 4; fill: rgb(255,255,255); fill-rule: nonzero; opacity: 1;" vector-effect="non-scaling-stroke"  transform=" translate(-104.01, -19.84)" d="M 103.75 18 L 104.21 18 L 105.58999999999999 21.67 L 105 21.67 L 104 18.67 L 103 21.67 L 102.43 21.67 Z M 102.95 20.41 L 104.95 20.41 L 104.95 20.86 L 102.95 20.86 Z" stroke-linecap="round" />
</g>
		<g transform="matrix(1 0 0 1 7 3.78)"  >
<path style="stroke: none; stroke-width: 1; stroke-dasharray: none; stroke-linecap: butt; stroke-dashoffset: 0; stroke-linejoin: miter; stroke-miterlimit: 4; fill: rgb(255,255,255); fill-rule: nonzero; opacity: 1;" vector-effect="non-scaling-stroke"  transform=" translate(-107.19, -19.84)" d="M 106.05 18 L 106.61999999999999 18 L 106.61999999999999 21.67 L 106.05 21.67 Z M 106.27 21.21 L 108.33999999999999 21.21 L 108.33999999999999 21.67 L 106.27 21.67 Z" stroke-linecap="round" />
</g>
		<g transform="matrix(1 0 0 1 9.97 3.84)"  >
<path style="stroke: none; stroke-width: 1; stroke-dasharray: none; stroke-linecap: butt; stroke-dashoffset: 0; stroke-linejoin: miter; stroke-miterlimit: 4; fill: rgb(255,255,255); fill-rule: nonzero; opacity: 1;" vector-effect="non-scaling-stroke"  transform=" translate(-110.17, -19.89)" d="M 109.48 21.53 C 109.27467545810553 21.439384671710922 109.11061532828909 21.275324541894463 109.02000000000001 21.07 C 108.93036050956525 20.855139931945622 108.89267313727748 20.622163448712172 108.91000000000001 20.39 L 108.91000000000001 19.39 C 108.89258881942487 19.154578697298465 108.93025042700339 18.918337704306037 109.02000000000001 18.7 C 109.11369694409618 18.496804652680893 109.2768046526809 18.33369694409617 109.48 18.24 C 109.69833770430604 18.15025042700337 109.93457869729846 18.112588819424868 110.17 18.13 C 110.36699024791135 18.10032591842827 110.56819756760363 18.139155401175902 110.74 18.24 C 110.85 18.36 111.08 18.47 111.19999999999999 18.58 C 111.34116811052715 18.741079895085978 111.4224095641549 18.945949647712503 111.42999999999999 19.159999999999997 L 110.85 19.159999999999997 C 110.85 19.039999999999996 110.74 18.929999999999996 110.74 18.809999999999995 L 110.50999999999999 18.579999999999995 C 110.39999999999999 18.579999999999995 110.27999999999999 18.469999999999995 110.16999999999999 18.469999999999995 C 110.0430046061542 18.45528440871463 109.91574436071026 18.495280485854153 109.82 18.579999999999995 C 109.71 18.699999999999996 109.6 18.809999999999995 109.6 18.929999999999996 C 109.6 19.049999999999997 109.47999999999999 19.159999999999997 109.47999999999999 19.389999999999997 L 109.47999999999999 20.389999999999997 C 109.47999999999999 20.619999999999997 109.47999999999999 20.729999999999997 109.6 20.839999999999996 C 109.72 20.949999999999996 109.71 21.069999999999997 109.82 21.189999999999998 C 109.91574436071026 21.27471951414584 110.0430046061542 21.314715591285363 110.16999999999999 21.299999999999997 C 110.29405792670478 21.315780452530575 110.41869524225011 21.27545661514826 110.50999999999999 21.189999999999998 C 110.63 21.069999999999997 110.74 21.069999999999997 110.74 20.959999999999997 C 110.82425315785017 20.867990295878595 110.86439213758193 20.743924358525902 110.85 20.619999999999997 L 111.42999999999999 20.619999999999997 C 111.42015106859103 20.830576118688004 111.33905280300888 21.031558776869854 111.19999999999999 21.189999999999998 C 111.07999999999998 21.299999999999997 110.96999999999998 21.529999999999998 110.74 21.529999999999998 C 110.51 21.529999999999998 110.39999999999999 21.65 110.17 21.65 C 109.93354786820584 21.669104450674777 109.6961187608922 21.627812432011538 109.48 21.53 Z" stroke-linecap="round" />
</g>
		<g transform="matrix(1 0 0 1 13.2 3.79)"  >
<path style="stroke: none; stroke-width: 1; stroke-dasharray: none; stroke-linecap: butt; stroke-dashoffset: 0; stroke-linejoin: miter; stroke-miterlimit: 4; fill: rgb(255,255,255); fill-rule: nonzero; opacity: 1;" vector-effect="non-scaling-stroke"  transform=" translate(-113.4, -19.84)" d="M 112.57 21.53 C 112.36467545810552 21.439384671710922 112.20061532828908 21.275324541894463 112.11 21.07 C 112.02036050956524 20.855139931945622 111.98267313727747 20.622163448712172 112 20.39 L 112 18 L 112.57 18 L 112.57 20.41 C 112.57740054452799 20.621103625925947 112.6588183626094 20.82287821856247 112.8 20.98 C 112.95384590718615 21.146469774931308 113.16908236278047 21.24277616014757 113.39572410795721 21.246553522567183 C 113.62236585313396 21.2503308849868 113.84069208748828 21.16125054460301 114 21 C 114.1411816373906 20.84287821856247 114.22259945547201 20.64110362592595 114.23 20.43 L 114.23 18 L 114.8 18 L 114.8 20.41 C 114.8 20.75 114.8 20.98 114.67999999999999 21.09 C 114.56226957582531 21.271882301795085 114.40925121005354 21.42830107569512 114.22999999999999 21.55 C 114.01388123910779 21.647812432011538 113.77645213179416 21.68910445067478 113.53999999999999 21.67 C 113.20998724253162 21.708961442772654 112.87552714794226 21.660688851800995 112.57 21.53 Z" stroke-linecap="round" />
</g>
		<g transform="matrix(1 0 0 1 16.38 3.78)"  >
<path style="stroke: none; stroke-width: 1; stroke-dasharray: none; stroke-linecap: butt; stroke-dashoffset: 0; stroke-linejoin: miter; stroke-miterlimit: 4; fill: rgb(255,255,255); fill-rule: nonzero; opacity: 1;" vector-effect="non-scaling-stroke"  transform=" translate(-116.58, -19.84)" d="M 115.44 18 L 116 18 L 116 21.67 L 115.43 21.67 Z M 115.66 21.21 L 117.72999999999999 21.21 L 117.72999999999999 21.67 L 115.66 21.67 Z" stroke-linecap="round" />
</g>
		<g transform="matrix(1 0 0 1 19.51 3.78)"  >
<path style="stroke: none; stroke-width: 1; stroke-dasharray: none; stroke-linecap: butt; stroke-dashoffset: 0; stroke-linejoin: miter; stroke-miterlimit: 4; fill: rgb(255,255,255); fill-rule: nonzero; opacity: 1;" vector-effect="non-scaling-stroke"  transform=" translate(-119.7, -19.84)" d="M 119.44 18 L 119.89999999999999 18 L 121.27999999999999 21.67 L 120.69999999999999 21.67 L 119.69999999999999 18.67 L 118.69999999999999 21.67 L 118.13 21.67 Z M 118.75999999999999 20.41 L 120.69999999999999 20.41 L 120.69999999999999 20.86 L 118.75999999999999 20.86 Z" stroke-linecap="round" />
</g>
		<g transform="matrix(1 0 0 1 22.28 3.78)"  >
<path style="stroke: none; stroke-width: 1; stroke-dasharray: none; stroke-linecap: butt; stroke-dashoffset: 0; stroke-linejoin: miter; stroke-miterlimit: 4; fill: rgb(255,255,255); fill-rule: nonzero; opacity: 1;" vector-effect="non-scaling-stroke"  transform=" translate(-122.48, -19.84)" d="M 121.16 18 L 123.8 18 L 123.8 18.46 L 121.16 18.46 Z M 122.16 18.23 L 122.72999999999999 18.23 L 122.72999999999999 21.67 L 122.16 21.67 Z" stroke-linecap="round" />
</g>
		<g transform="matrix(1 0 0 1 25.2 3.84)"  >
<path style="stroke: none; stroke-width: 1; stroke-dasharray: none; stroke-linecap: butt; stroke-dashoffset: 0; stroke-linejoin: miter; stroke-miterlimit: 4; fill: rgb(255,255,255); fill-rule: nonzero; opacity: 1;" vector-effect="non-scaling-stroke"  transform=" translate(-125.4, -19.89)" d="M 124.71 21.53 C 124.50467545810552 21.439384671710922 124.34061532828908 21.275324541894463 124.25 21.07 C 124.16036050956524 20.855139931945622 124.12267313727747 20.622163448712172 124.14 20.39 L 124.14 19.39 C 124.12258881942486 19.154578697298465 124.16025042700338 18.918337704306037 124.25 18.7 C 124.34369694409617 18.496804652680893 124.50680465268088 18.33369694409617 124.71 18.24 C 125.15831925041266 18.09339652377691 125.64168074958732 18.09339652377691 126.08999999999999 18.24 C 126.29048325890315 18.334163822125454 126.45026461071258 18.497495870641742 126.53999999999999 18.7 C 126.63781243201153 18.9161187608922 126.67910445067477 19.15354786820583 126.66 19.39 L 126.66 20.39 C 126.67871527291999 20.623194534693777 126.63740308374618 20.857296940012017 126.53999999999999 21.07 C 126.45345265937796 21.274645675879643 126.29269434681117 21.438976395392352 126.08999999999999 21.53 C 125.64456861954831 21.69372617374417 125.15543138045167 21.69372617374417 124.71 21.53 Z M 125.86 21.07 C 125.97 20.96 126.09 20.96 126.09 20.73 C 126.09 20.5 126.2 20.5 126.2 20.27 L 126.2 19.27 C 126.21539840195993 19.108708209118234 126.17669964429254 18.946877040690957 126.09 18.81 C 125.97 18.7 125.97 18.58 125.86 18.47 C 125.75 18.36 125.63 18.36 125.4 18.36 C 125.2395519756514 18.354507173497126 125.080605752416 18.392516052966457 124.94000000000001 18.47 C 124.83000000000001 18.58 124.71000000000001 18.58 124.71000000000001 18.81 C 124.71000000000001 19.04 124.60000000000001 19.04 124.60000000000001 19.27 L 124.60000000000001 20.27 C 124.58218576366875 20.431451687402802 124.62107353190324 20.594073263656075 124.71000000000001 20.73 C 124.83000000000001 20.84 124.83000000000001 20.96 124.94000000000001 21.07 C 125.05000000000001 21.18 125.17000000000002 21.19 125.4 21.19 C 125.63 21.19 125.74 21.19 125.86 21.07 Z" stroke-linecap="round" />
</g>
		<g transform="matrix(1 0 0 1 28.61 3.67)"  >
<path style="stroke: none; stroke-width: 1; stroke-dasharray: none; stroke-linecap: butt; stroke-dashoffset: 0; stroke-linejoin: miter; stroke-miterlimit: 4; fill: rgb(255,255,255); fill-rule: nonzero; opacity: 1;" vector-effect="non-scaling-stroke"  transform=" translate(-128.81, -19.72)" d="M 127.46 18 L 128 18 L 128 21.67 L 127.43 21.67 Z M 127.69 19.6 L 129 19.6 C 129.11 19.6 129.23 19.6 129.23 19.490000000000002 C 129.23 19.380000000000003 129.34 19.380000000000003 129.45999999999998 19.26 C 129.57999999999996 19.14 129.57 19.03 129.57 18.92 C 129.58471559128535 18.793004606154206 129.54471951414584 18.66574436071027 129.45999999999998 18.57 C 129.45999999999998 18.46 129.33999999999997 18.46 129.23 18.35 C 129.12 18.240000000000002 129.10999999999999 18.23 129 18.23 L 127.74 18.23 L 127.74 17.77 L 129 17.77 C 129.23 17.77 129.46 17.77 129.57 17.89 C 129.67999999999998 18.01 129.91 18.12 129.91 18.23 C 129.9612678639195 18.417452257284417 130.00133864706896 18.60778847724433 130.03 18.8 C 130.0494853515738 19.00101521391569 130.007649945792 19.203219675194475 129.91 19.38 C 129.79999999999998 19.599999999999998 129.69 19.72 129.57 19.72 C 129.39819756760363 19.820844598824095 129.19699024791134 19.85967408157173 129 19.83 L 127.74 19.83 Z M 128.69 19.950000000000003 L 129.26 19.830000000000002 L 130.17999999999998 21.67 L 129.60999999999999 21.67 Z" stroke-linecap="round" />
</g>
</g>
</g>
<g transform="matrix(1.68 0 0 -0.61 540 540)" id="bba9eaca-aed9-4dd1-b9e9-157978ef7aa2"  >
<rect style="stroke: rgb(74,120,180); stroke-width: 1; stroke-dasharray: none; stroke-linecap: butt; stroke-dashoffset: 0; stroke-linejoin: miter; stroke-miterlimit: 4; fill: rgb(98,115,176); fill-rule: nonzero; opacity: 1;" vector-effect="non-scaling-stroke"  x="-37.4585" y="-19.4165" rx="0" ry="0" width="74.917" height="38.833" />
</g>
<g transform="matrix(1 0 0 1 540 540)" style="" id="7e05fba4-816b-4351-a459-04347f599fc9"  >
		<text xml:space="preserve" font-family="Raleway" font-size="14" font-style="normal" font-weight="900" style="stroke: none; stroke-width: 1; stroke-dasharray: none; stroke-linecap: butt; stroke-dashoffset: 0; stroke-linejoin: miter; stroke-miterlimit: 4; fill: rgb(255,255,255); fill-rule: nonzero; opacity: 1; white-space: pre;" ><tspan x="-56.1" y="4.4" style="fill: rgb(255,255,255); ">WPM Calculator</tspan></text>
</g>
</svg>