<?xml version="1.0" encoding="UTF-8"?>
<svg version="1.1" xmlns="http://www.w3.org/2000/svg" width="512" height="512">
<path d="M0 0 C69.96 0 139.92 0 212 0 C212 89.1 212 178.2 212 270 C167.635625 270.020625 123.27125 270.04125 77.5625 270.0625 C56.5106189 270.07615601 56.5106189 270.07615601 35.03344727 270.09008789 C17.96276855 270.09460449 17.96276855 270.09460449 9.98423767 270.09544373 C4.38344405 270.09637953 -1.21733968 270.10006142 -6.81813049 270.10557556 C-13.26935002 270.11191764 -19.72056001 270.11484143 -26.17178268 270.11344495 C-29.47551833 270.1128396 -32.77922818 270.11438271 -36.08296096 270.11921513 C-39.61114686 270.12413889 -43.13927824 270.1230085 -46.66746521 270.12025452 C-48.2326494 270.12462351 -48.2326494 270.12462351 -49.82945347 270.12908077 C-50.76877405 270.1270899 -51.70809464 270.12509903 -52.67587948 270.12304783 C-53.49265791 270.12342755 -54.30943634 270.12380727 -55.15096563 270.1241985 C-57 270 -57 270 -58 269 C-58.08868299 266.04294679 -58.11520296 263.10934944 -58.09765625 260.15234375 C-58.0962413 259.2659169 -58.09482635 258.37949005 -58.09336853 257.46620178 C-58.08775215 254.62326746 -58.07519691 251.78041069 -58.0625 248.9375 C-58.05748711 247.01497509 -58.05292384 245.09244896 -58.04882812 243.16992188 C-58.03777741 238.44658451 -58.02050183 233.72330542 -58 229 C-55 230 -55 230 -54 232 C-54 243.55 -54 255.1 -54 267 C32.79 267 119.58 267 209 267 C209 179.88 209 92.76 209 3 C139.7 3 70.4 3 -1 3 C-0.67 2.01 -0.34 1.02 0 0 Z " fill="#000000" transform="translate(191,121)"/>
<path d="M0 0 C5.94 0 11.88 0 18 0 C17.34 1.32 16.68 2.64 16 4 C15.69297836 6.22741958 15.69297836 6.22741958 15.7215271 8.61907959 C15.71036362 9.54172104 15.69920013 10.46436249 15.68769836 11.41496277 C15.68553818 12.41981216 15.68337799 13.42466156 15.68115234 14.45996094 C15.67110672 15.52368423 15.6610611 16.58740753 15.65071106 17.68336487 C15.61981311 21.20036273 15.60282534 24.71728425 15.5859375 28.234375 C15.5672312 30.67247172 15.54765819 33.11056193 15.5272522 35.54864502 C15.47586833 41.96669685 15.43627597 48.38476968 15.39910889 54.80291748 C15.35910852 61.3517377 15.30799807 67.90047007 15.2578125 74.44921875 C15.16097911 87.2994164 15.07622076 100.1496644 15 113 C20.13756633 112.93015102 25.27439222 112.84174441 30.41137695 112.73754883 C32.15185185 112.70469153 33.8924233 112.67654366 35.63305664 112.65356445 C56.68839596 112.4990277 56.68839596 112.4990277 76 105 C77.97424869 102.93455106 77.97424869 102.93455106 79 101 C79.66 101.33 80.32 101.66 81 102 C80.5253725 104.3134359 80.04517721 106.62573019 79.5625 108.9375 C79.29566406 110.22527344 79.02882813 111.51304687 78.75390625 112.83984375 C78 116 78 116 77 117 C74.59651714 117.09496708 72.22189018 117.12558862 69.81811523 117.11352539 C68.6913588 117.11374443 68.6913588 117.11374443 67.5418396 117.1139679 C65.04739541 117.11326863 62.55302497 117.10547564 60.05859375 117.09765625 C58.33366436 117.09579212 56.60873443 117.09436819 54.88380432 117.09336853 C50.33487497 117.08954297 45.78597733 117.07971238 41.23706055 117.06866455 C36.59879994 117.05845124 31.96053423 117.05387108 27.32226562 117.04882812 C18.21482978 117.03809014 9.10741752 117.02101327 0 117 C0.48699371 115.88733765 0.97398743 114.77467529 1.47573853 113.6282959 C3.31582323 108.69114729 3.42330884 104.17087884 3.38818359 98.94726562 C3.39344055 97.97383713 3.39869751 97.00040863 3.40411377 95.9974823 C3.41724853 92.80023855 3.40859867 89.60349826 3.3984375 86.40625 C3.4004601 84.17240301 3.4033731 81.93855666 3.40713501 79.70471191 C3.41154954 75.03110444 3.40515525 70.3576694 3.39111328 65.68408203 C3.37402212 59.70553104 3.38386794 53.72738414 3.40183067 47.74884796 C3.41269196 43.13849871 3.40921137 38.52824463 3.4014473 33.91789246 C3.39945178 31.71396334 3.40188168 29.51002546 3.40888596 27.30610657 C3.41653891 24.22141766 3.40484206 21.13737536 3.38818359 18.05273438 C3.39729263 16.69809334 3.39729263 16.69809334 3.40658569 15.31608582 C3.39812622 14.46682022 3.38966675 13.61755463 3.38095093 12.74255371 C3.37981985 12.01550987 3.37868877 11.28846603 3.37752342 10.53939056 C2.94083947 6.99211939 2.94083947 6.99211939 0 0 Z " fill="#000000" transform="translate(129,161)"/>
<path d="M0 0 C5.61 0 11.22 0 17 0 C17.10908691 1.32572021 17.21817383 2.65144043 17.33056641 4.01733398 C17.84385124 8.58724092 19.00512951 12.47329401 20.7109375 16.72265625 C20.99119278 17.44595627 21.27144806 18.16925629 21.56019592 18.91447449 C22.48818092 21.3013092 23.43153077 23.68174837 24.375 26.0625 C25.03354028 27.74866956 25.69115225 29.43520193 26.34790039 31.12207031 C30.2601489 41.1451057 34.24573253 51.13922005 38.22265625 61.13671875 C38.65715088 62.23021133 39.09164551 63.32370392 39.53930664 64.45033264 C41.68581415 69.851811 43.83819355 75.25077056 46.00341797 80.64477539 C46.79277791 82.62250485 47.58200958 84.6002855 48.37109375 86.578125 C48.73912613 87.48886276 49.10715851 88.39960052 49.48634338 89.3379364 C49.98508217 90.59233269 49.98508217 90.59233269 50.49389648 91.87207031 C50.78618637 92.60049133 51.07847626 93.32891235 51.37962341 94.07940674 C52 96 52 96 52 99 C52.66 99 53.32 99 54 99 C54.25917709 98.08910362 54.25917709 98.08910362 54.52359009 97.1598053 C56.31411176 91.01295259 58.41431013 85.07035539 60.7734375 79.12109375 C61.31420174 77.74368767 61.31420174 77.74368767 61.8658905 76.3384552 C62.63507307 74.38082509 63.40606507 72.4239051 64.17874146 70.46765137 C65.38935459 67.40113948 66.59368028 64.33222044 67.79663086 61.26269531 C71.50127319 51.81978369 75.23500143 42.39001495 79.04296875 32.98828125 C79.93680524 30.76829588 80.82970316 28.54793568 81.722229 26.3274231 C82.53936639 24.30719379 83.37061869 22.29318852 84.20263672 20.27905273 C86.98213392 13.36950895 88.70931568 7.45853421 89 0 C91.97 0 94.94 0 98 0 C98 0.66 98 1.32 98 2 C97.34 2 96.68 2 96 2 C93.46658525 6.9257692 91.46174423 12.06063075 89.375 17.1875 C88.89627441 18.363125 88.41754883 19.53875 87.92431641 20.75 C82.9494533 33.01065733 78.15808531 45.3426127 73.36279297 57.67431641 C68.11955397 71.15469685 62.82326916 84.61352895 57.5 98.0625 C57.12075378 99.02075684 56.74150757 99.97901367 56.35076904 100.96630859 C54.23511026 106.31137375 52.1181582 111.65592485 50 117 C49.34 117 48.68 117 48 117 C47.43261224 115.55623567 46.86523092 114.11246881 46.29785156 112.66870117 C45.92122375 111.71032852 45.54459595 110.75195587 45.15655518 109.76454163 C44.29574694 107.57393386 43.43503264 105.38328918 42.57440186 103.19261169 C40.38904543 97.63005063 38.20317852 92.06769473 36.01457977 86.50640869 C34.74358907 83.27660673 33.47319137 80.04657179 32.203125 76.81640625 C31.94621384 76.16300514 31.68930267 75.50960403 31.42460632 74.83640289 C28.15516765 66.51837574 24.90562655 58.19305674 21.68157959 49.85731506 C19.8859333 45.21490813 18.08409292 40.57491523 16.28210449 35.93496704 C15.43350515 33.74416599 14.58815884 31.55210186 13.74621582 29.35873413 C12.56821128 26.29058489 11.37899502 23.22699321 10.1875 20.1640625 C9.85079285 19.27778671 9.51408569 18.39151093 9.16717529 17.4783783 C6.71208333 11.21254002 3.57728054 5.70208822 0 0 Z " fill="#000000" transform="translate(234,161)"/>
<path d="M0 0 C0.66 0 1.32 0 2 0 C1.43081284 5.91954643 0.19217069 11.43241035 -1.37890625 17.16796875 C-1.9742938 19.88278619 -2.1163641 22.23255821 -2 25 C1.39985263 24.60001734 3.12864478 23.91155671 6 21.9375 C9.1114613 19.92801458 10.40260322 19.57677685 14 20 C14.33 20.66 14.66 21.32 15 22 C19.82360189 22.19294408 23.49646738 21.75747614 28 20 C28 21.65 28 23.3 28 25 C29.70840281 23.36587557 30.93453047 22.13093906 32 20 C32.66 20 33.32 20 34 20 C34 20.66 34 21.32 34 22 C35.77119803 21.85866501 37.54195287 21.71176792 39.3125 21.5625 C40.29863281 21.48128906 41.28476563 21.40007812 42.30078125 21.31640625 C45.09375599 21.08187441 45.09375599 21.08187441 48 20 C48 20.99 48 21.98 48 23 C48.9075 22.505 49.815 22.01 50.75 21.5 C54 20 54 20 58 20 C58.99 22.475 58.99 22.475 60 25 C65.14385955 23.51962683 65.14385955 23.51962683 69 20 C69.33 19.34 69.66 18.68 70 18 C70.66 18 71.32 18 72 18 C72 20.31 72 22.62 72 25 C76.22684911 24.05111551 79.10396771 23.09336598 82.5 20.375 C85.97472774 17.68819238 88.59949924 17.55096931 93 18 C93 18.99 93 19.98 93 21 C92.05125 20.95875 91.1025 20.9175 90.125 20.875 C86.89755144 20.65026182 86.89755144 20.65026182 85 23 C89.38361308 24.28929796 91.7547779 23.44337551 96 22 C98.33212027 21.92477031 100.6685311 21.90674124 103 22 C103.10957031 21.41734375 103.21914062 20.8346875 103.33203125 20.234375 C104.64899257 13.42472135 106.26920474 6.71548559 108 0 C108.99 0 109.98 0 111 0 C110.58427734 1.73636719 110.58427734 1.73636719 110.16015625 3.5078125 C109.79416563 5.04684999 109.42828609 6.58591389 109.0625 8.125 C108.88009766 8.88554687 108.69769531 9.64609375 108.50976562 10.4296875 C107.52009827 14.60428434 106.64427021 18.75459839 106 23 C106.9075 22.505 107.815 22.01 108.75 21.5 C112 20 112 20 116 20 C116.99 22.475 116.99 22.475 118 25 C118.86625 24.71125 119.7325 24.4225 120.625 24.125 C123.75 23.08333333 126.875 22.04166667 130 21 C129 24 129 24 127.328125 25.16796875 C119.64504776 28.937298 119.64504776 28.937298 116 28 C114.1875 25.5 114.1875 25.5 113 23 C112.37351562 23.3609375 111.74703125 23.721875 111.1015625 24.09375 C110.28429687 24.5578125 109.46703125 25.021875 108.625 25.5 C107.81289062 25.9640625 107.00078125 26.428125 106.1640625 26.90625 C104 28 104 28 102 28 C102 26.68 102 25.36 102 24 C100.20275237 24.36966799 98.41214422 24.7717248 96.625 25.1875 C95.62726563 25.40792969 94.62953125 25.62835938 93.6015625 25.85546875 C90.78143772 26.75616019 90.78143772 26.75616019 89.828125 29.4921875 C89.41820312 30.73355469 89.41820312 30.73355469 89 32 C86.125 33.9375 86.125 33.9375 83 35 C80.625 34.1875 80.625 34.1875 79 33 C80.375 30.5 80.375 30.5 82 28 C82.66 28 83.32 28 84 28 C83.505 27.01 83.505 27.01 83 26 C82.34 26.144375 81.68 26.28875 81 26.4375 C77.30988955 27.12939571 73.74711486 27.69285944 70 28 C69.01 27.01 69.01 27.01 68 26 C67.278125 26.33 66.55625 26.66 65.8125 27 C62.86826242 28.04684003 61.07742629 28.56689432 58 28 C56.1875 25.5 56.1875 25.5 55 23 C54.37351563 23.3609375 53.74703125 23.721875 53.1015625 24.09375 C52.28429687 24.5578125 51.46703125 25.021875 50.625 25.5 C49.81289062 25.9640625 49.00078125 26.428125 48.1640625 26.90625 C46 28 46 28 44 28 C44 26.68 44 25.36 44 24 C43.01 24.495 43.01 24.495 42 25 C39.72314088 24.99135917 37.46453697 24.86951278 35.19140625 24.7421875 C32.46193002 25.06330235 31.80053466 26.01627141 30 28 C27.02602384 27.72963853 26.14553974 27.14553974 24 25 C21.48153624 25.16554026 21.48153624 25.16554026 18.6875 25.8125 C17.27017578 26.10060547 17.27017578 26.10060547 15.82421875 26.39453125 C13.964524 26.793221 12.11202884 27.22739176 10.26953125 27.69921875 C9.14611328 27.84810547 9.14611328 27.84810547 8 28 C7.34 27.34 6.68 26.68 6 26 C5.46375 26.33 4.9275 26.66 4.375 27 C1.43720283 28.23696723 -0.84154883 28.21056341 -4 28 C-5 27 -5 27 -5.21875 23.03515625 C-5.16155877 17.8807964 -3.99366675 13.34237867 -2.5 8.4375 C-2.26152344 7.61958984 -2.02304688 6.80167969 -1.77734375 5.95898438 C-1.19561999 3.96948911 -0.59934441 1.98425811 0 0 Z M85 29 C84.01 30.485 84.01 30.485 83 32 C84.65 31.34 86.3 30.68 88 30 C87.01 29.67 86.02 29.34 85 29 Z " fill="#000000" transform="translate(115,310)"/>
<path d="M0 0 C0.66 0 1.32 0 2 0 C0.15929628 15.62719889 -8.6293852 34.10927534 -21 44 C-24.46996595 46.02527196 -26.97201799 46.26853213 -31 46 C-32.59321277 44.40678723 -32.18951342 42.76728192 -32.21875 40.5625 C-32.15544081 34.20444827 -30.53065869 28.56552194 -28.77734375 22.5 C-27.14978135 16.54777181 -26.7049724 11.16279875 -27 5 C-31.83286274 3.56148114 -34.20281002 5.22742743 -38.53125 7.55078125 C-44.53395345 11.07452014 -48.9217615 15.14897929 -51 22 C-50.67 22.99 -50.34 23.98 -50 25 C-49.34 25.33 -48.68 25.66 -48 26 C-48 26.66 -48 27.32 -48 28 C-52.875 27.125 -52.875 27.125 -54 26 C-54.73244691 20.99494614 -53.34663737 18.04641929 -50.61328125 14.01953125 C-45.07986746 7.09271545 -38.05917843 1.74643616 -29.1875 0.4375 C-26 1 -26 1 -24 2.8125 C-21.18674129 11.77976214 -25.02248764 21.84646677 -27.27148438 30.65039062 C-27.49255859 31.52630859 -27.71363281 32.40222656 -27.94140625 33.3046875 C-28.14451416 34.08827637 -28.34762207 34.87186523 -28.55688477 35.67919922 C-29.03228956 38.16911546 -29.0758287 40.47107098 -29 43 C-23.18452117 42.48686951 -19.91257952 39.25269182 -16.30859375 35.0078125 C-8.55907419 24.70979322 -4.1279081 12.10169331 0 0 Z " fill="#000000" transform="translate(315,306)"/>
<path d="M0 0 C0 1.32 0 2.64 0 4 C-1.32 4.33 -2.64 4.66 -4 5 C1.48515912 4.52714146 5.09101692 3.61812431 10 1 C12.57859214 0.26325939 14.25834894 -0.18968853 16.86328125 0.4765625 C19.16973415 1.04158021 21.19105407 1.1330252 23.5625 1.125 C24.32691406 1.12757813 25.09132813 1.13015625 25.87890625 1.1328125 C28.18998495 1.07907384 28.18998495 1.07907384 31 0 C31 0.99 31 1.98 31 3 C31.5775 2.505 32.155 2.01 32.75 1.5 C35 0 35 0 39 0 C39.495 1.98 39.495 1.98 40 4 C40.7425 3.319375 41.485 2.63875 42.25 1.9375 C45 0 45 0 47.3125 0.25 C47.869375 0.4975 48.42625 0.745 49 1 C49.495 2.98 49.495 2.98 50 5 C51.43931117 4.54738642 52.87638999 4.08767021 54.3125 3.625 C55.51326172 3.24214844 55.51326172 3.24214844 56.73828125 2.8515625 C59.22724528 2.01168189 59.22724528 2.01168189 62 0 C65.1875 -0.125 65.1875 -0.125 68 0 C68.495 2.475 68.495 2.475 69 5 C70.0725 4.690625 71.145 4.38125 72.25 4.0625 C74.82866222 3.33187904 77.39512102 2.62517096 80 2 C79 5 79 5 75.75 6.6875 C72.4067786 7.85762749 70.45147725 8.2876231 67 8 C66.01 8 65.02 8 64 8 C62.68 8 61.36 8 60 8 C60 7.01 60 6.02 60 5 C59.13375 5.495 58.2675 5.99 57.375 6.5 C53.89250377 8.0477761 51.75240542 8.26802896 48 8 C47.34 6.35 46.68 4.7 46 3 C44.6078125 4.2375 44.6078125 4.2375 43.1875 5.5 C40.375 8 40.375 8 37 8 C37 6.35 37 4.7 37 3 C36.0925 3.639375 35.185 4.27875 34.25 4.9375 C31.60778619 6.61428953 30.0101501 7.53689998 27 8 C27 7.01 27 6.02 27 5 C25.06601192 4.72414434 23.12746091 4.48012585 21.1875 4.25 C20.10855469 4.11078125 19.02960938 3.9715625 17.91796875 3.828125 C16.47357422 3.91320312 16.47357422 3.91320312 15 4 C13.20802672 5.90238393 13.20802672 5.90238393 12 8 C11.34 8 10.68 8 10 8 C10 7.01 10 6.02 10 5 C9.443125 5.2165625 8.88625 5.433125 8.3125 5.65625 C2.95771633 7.61002242 -1.30212043 8.4069914 -7 8 C-8 7 -8 7 -8.25 4.5625 C-8.1675 3.716875 -8.085 2.87125 -8 2 C-4.77208445 -0.1519437 -3.71599191 -0.20086443 0 0 Z " fill="#000000" transform="translate(319,330)"/>
</svg>
