<?xml version="1.0" encoding="UTF-8"?>
<svg version="1.1" xmlns="http://www.w3.org/2000/svg" width="383" height="130">
<path d="M0 0 C0.76759771 -0.00694553 1.53519543 -0.01389106 2.32605368 -0.02104706 C4.90032692 -0.03935583 7.47368261 -0.02904237 10.04798889 -0.01878357 C11.89266654 -0.02584012 13.73733839 -0.03458402 15.58200073 -0.04489136 C20.59443101 -0.06742513 25.60654613 -0.06443626 30.61900783 -0.05556989 C34.80156657 -0.0504657 38.98406579 -0.05774796 43.16661841 -0.06504196 C53.03272694 -0.08205375 62.89868086 -0.07846234 72.76478577 -0.06175232 C82.94756364 -0.0448291 93.12991289 -0.06066547 103.31264395 -0.0929752 C112.05161621 -0.11965473 120.79045492 -0.12695154 129.52946383 -0.11846012 C134.75047189 -0.11352619 139.97122201 -0.1157717 145.1921978 -0.13624763 C150.10154355 -0.15457901 155.01027188 -0.14867719 159.91958427 -0.12404823 C161.72193594 -0.11903226 163.52433444 -0.12255046 165.32664871 -0.13519669 C167.78643127 -0.15109145 170.24417178 -0.1362125 172.70385742 -0.11352539 C173.41806302 -0.12536112 174.13226861 -0.13719685 174.8681168 -0.14939123 C178.69496578 -0.07762245 180.3205833 0.43959682 183.35894108 2.84455967 C186.01681072 6.29550026 186.03375457 8.31929334 186.00917053 12.64356995 C186.00921082 13.31508591 186.0092511 13.98660187 186.0092926 14.6784668 C186.00395396 16.09132805 185.98644151 17.50419021 185.95741272 18.91676331 C185.91546898 21.07467126 185.91635415 23.22946265 185.92323303 25.38771057 C185.8452115 35.6281109 185.8452115 35.6281109 184.36365509 38.68419647 C181.47791792 41.39549593 178.58136093 41.06837845 174.82374573 41.02259827 C173.65313811 41.03195821 173.65313811 41.03195821 172.45888186 41.04150724 C169.8353664 41.05750359 167.21277154 41.04480753 164.58924866 41.03224182 C162.7119187 41.03766001 160.834593 41.04478095 158.95727539 41.05348206 C153.85193697 41.07175448 148.746921 41.06463172 143.64157677 41.05196571 C138.30580635 41.04185832 132.97006407 41.05122509 127.6342926 41.05751038 C118.67277556 41.06479338 109.71139025 41.05518194 100.74989319 41.03614807 C90.38026322 41.01437812 80.01094781 41.02142903 69.64132547 41.04345369 C60.74784602 41.06158908 51.85446141 41.06417513 42.96096945 41.05369902 C37.64503922 41.04745384 32.32925698 41.04665654 27.01333618 41.05984497 C22.0162536 41.07137578 17.01957766 41.06342852 12.02253914 41.04026794 C10.18548827 41.03496601 8.34840334 41.03651987 6.51136589 41.0453186 C4.00947592 41.05619948 1.5089008 41.0426022 -0.99290466 41.02259827 C-1.7252909 41.03152115 -2.45767715 41.04044404 -3.21225691 41.04963732 C-6.42517381 40.99957559 -8.13907379 40.93148839 -10.53380585 38.6909256 C-12.06911091 35.51114848 -11.99167043 32.78318196 -12.01817322 29.2646637 C-12.02341507 28.56953674 -12.02865692 27.87440979 -12.03405762 27.15821838 C-12.04046476 25.69241163 -12.03915769 24.22655337 -12.03062439 22.76075745 C-12.02210564 20.52154383 -12.05090115 18.28487598 -12.08262634 16.0459137 C-12.08423838 14.61883112 -12.08366077 13.19174405 -12.08067322 11.7646637 C-12.08345276 9.82333557 -12.08345276 9.82333557 -12.08628845 7.8427887 C-11.00395723 0.66306159 -6.46015552 -0.07430756 0 0 Z " fill="#94B7F9" transform="translate(138.58457946777344,16.485336303710938)"/>
<path d="M0 0 C14.85 0 29.7 0 45 0 C46.29335514 2.58671028 46.12706076 4.45546784 46.12939453 7.35180664 C46.13254669 8.46959 46.13569885 9.58737335 46.13894653 10.73902893 C46.1369223 11.95050095 46.13489807 13.16197296 46.1328125 14.41015625 C46.13376923 15.6479332 46.13472595 16.88571014 46.13571167 18.16099548 C46.13656799 21.4535191 46.13253316 24.7459958 46.12695312 28.03851318 C46.12500057 30.06190488 46.12694773 32.08525326 46.13037109 34.10864258 C46.13652249 37.98000119 46.13580714 41.85129503 46.1328125 45.72265625 C46.13483673 46.9361525 46.13686096 48.14964874 46.13894653 49.3999176 C46.13421829 51.0718644 46.13421829 51.0718644 46.12939453 52.77758789 C46.12859894 53.76416885 46.12780334 54.75074982 46.12698364 55.76722717 C46 58 46 58 45 59 C43.18944975 59.09376053 41.37522799 59.1174411 39.56225586 59.11352539 C37.82056374 59.11341209 37.82056374 59.11341209 36.04368591 59.11329651 C34.14840904 59.10555458 34.14840904 59.10555458 32.21484375 59.09765625 C30.92888809 59.0962413 29.64293243 59.09482635 28.31800842 59.09336853 C24.89356557 59.08954418 21.46916491 59.07971462 18.04473877 59.06866455 C14.55261811 59.05844864 11.06049066 59.05387053 7.56835938 59.04882812 C0.71222222 59.03809227 -6.14388687 59.02101684 -13 59 C-13 56.03 -13 53.06 -13 50 C-12.34 50 -11.68 50 -11 50 C-11 52.31 -11 54.62 -11 57 C7.15 57 25.3 57 44 57 C43.505 52.545 43.505 52.545 43 48 C40.06195004 47.91913624 37.12611925 47.8595717 34.1875 47.8125 C33.35412109 47.78736328 32.52074219 47.76222656 31.66210938 47.73632812 C30.85966797 47.72666016 30.05722656 47.71699219 29.23046875 47.70703125 C28.49207764 47.6913208 27.75368652 47.67561035 26.99291992 47.65942383 C24.46255003 48.09184647 23.74146962 49.18682808 22 51 C21.01 51 20.02 51 19 51 C17.74458443 47.23375329 18.62938042 45.62811066 20 42 C16.75150023 43.72226496 16.75150023 43.72226496 16 47 C15.34 47 14.68 47 14 47 C14.3125 44.625 14.3125 44.625 15 42 C18 40 18 40 20.1875 40.375 C20.785625 40.58125 21.38375 40.7875 22 41 C22 42.98 22 44.96 22 47 C23.32 44.69 24.64 42.38 26 40 C26.33 40.99 26.66 41.98 27 43 C27.33 43.66 27.66 44.32 28 45 C32.95 45 37.9 45 43 45 C43 31.14 43 17.28 43 3 C21.22 2.505 21.22 2.505 -1 2 C-0.67 1.34 -0.34 0.68 0 0 Z " fill="#858786" transform="translate(212,62)"/>
<path d="M0 0 C7.59 0 15.18 0 23 0 C23 1.65 23 3.3 23 5 C24.32 5 25.64 5 27 5 C27 3.68 27 2.36 27 1 C27.99 1 28.98 1 30 1 C30 4.96 30 8.92 30 13 C29.01 13 28.02 13 27 13 C27 11.35 27 9.7 27 8 C25.35 8 23.7 8 22 8 C22 9.65 22 11.3 22 13 C21.01 13 20.02 13 19 13 C19 9.7 19 6.4 19 3 C17.35 3 15.7 3 14 3 C14 6.3 14 9.6 14 13 C13.01 13 12.02 13 11 13 C11 10.03 11 7.06 11 4 C10.01 4.33 9.02 4.66 8 5 C7.67 7.64 7.34 10.28 7 13 C4.5625 12.625 4.5625 12.625 2 12 C1.67 11.34 1.34 10.68 1 10 C0.67 10.99 0.34 11.98 0 13 C-0.99 13 -1.98 13 -3 13 C-3.66 11.02 -4.32 9.04 -5 7 C-5.66 8.98 -6.32 10.96 -7 13 C-8.32 13 -9.64 13 -11 13 C-11.66 9.04 -12.32 5.08 -13 1 C-12.01 1.33 -11.02 1.66 -10 2 C-9.67 3.65 -9.34 5.3 -9 7 C-8.34 5.02 -7.68 3.04 -7 1 C-6.01 1 -5.02 1 -4 1 C-3.34 2.98 -2.68 4.96 -2 7 C-1.34 4.69 -0.68 2.38 0 0 Z " fill="#89A0CD" transform="translate(219,31)"/>
<path d="M0 0 C2.29141286 -0.05384521 4.58318188 -0.09272087 6.875 -0.125 C8.78925781 -0.15980469 8.78925781 -0.15980469 10.7421875 -0.1953125 C14 0 14 0 16 2 C16.125 5.125 16.125 5.125 16 8 C15.34 8 14.68 8 14 8 C13.731875 8.598125 13.46375 9.19625 13.1875 9.8125 C11.95888747 12.07573361 11.10968654 13.51540577 9 15 C6.625 15.0625 6.625 15.0625 4 14 C0.81701525 10.95848124 -0.86428948 9.17615785 -1.375 4.75 C-1 2 -1 2 0 0 Z " fill="#DA2E43" transform="translate(256,30)"/>
<path d="M0 0 C14.85 0 29.7 0 45 0 C46.63945963 3.27891925 46.12030178 6.90613534 46.09765625 10.5078125 C46.0962413 11.34843231 46.09482635 12.18905212 46.09336853 13.05514526 C46.08776237 15.74513275 46.07520886 18.43503759 46.0625 21.125 C46.05748579 22.94661338 46.05292275 24.76822807 46.04882812 26.58984375 C46.03779094 31.05992777 46.0205222 35.52994986 46 40 C43.09493794 37.09493794 43.64534153 34.0467741 43.5859375 30.1484375 C43.56829346 29.46241455 43.55064941 28.7763916 43.5324707 28.06958008 C43.46936682 25.50495923 43.42320551 22.93994413 43.375 20.375 C43.25125 14.64125 43.1275 8.9075 43 3 C21.22 2.505 21.22 2.505 -1 2 C-0.67 1.34 -0.34 0.68 0 0 Z " fill="#131C23" transform="translate(212,62)"/>
<path d="M0 0 C1.13284424 0.00773437 2.26568848 0.01546875 3.43286133 0.0234375 C4.65642334 0.05308594 5.87998535 0.08273438 7.140625 0.11328125 C8.40221436 0.12875 9.66380371 0.14421875 10.96362305 0.16015625 C15.10704376 0.22107025 19.24826344 0.31664607 23.390625 0.42578125 C24.12758606 0.44465393 24.86454712 0.46352661 25.62384033 0.48297119 C35.54823043 0.73962492 45.46970673 1.05815877 55.390625 1.42578125 C55.390625 1.75578125 55.390625 2.08578125 55.390625 2.42578125 C35.260625 2.42578125 15.130625 2.42578125 -5.609375 2.42578125 C-5.939375 3.41578125 -6.269375 4.40578125 -6.609375 5.42578125 C-7.269375 5.42578125 -7.929375 5.42578125 -8.609375 5.42578125 C-8.609375 15.65578125 -8.609375 25.88578125 -8.609375 36.42578125 C-8.939375 36.42578125 -9.269375 36.42578125 -9.609375 36.42578125 C-9.70840973 31.94179341 -9.78091983 27.45838833 -9.82910156 22.97363281 C-9.84919099 21.4487804 -9.87646816 19.92400477 -9.91113281 18.39941406 C-9.95977296 16.20488527 -9.98236896 14.01137656 -10 11.81640625 C-10.02094727 10.49672852 -10.04189453 9.17705078 -10.06347656 7.81738281 C-9.609375 4.42578125 -9.609375 4.42578125 -7.93554688 1.99047852 C-5.0521715 0.05097886 -3.45883529 -0.05093143 0 0 Z " fill="#98B2EA" transform="translate(136.609375,16.57421875)"/>
<path d="M0 0 C1.32 0 2.64 0 4 0 C4.42152344 1.20398438 4.84304687 2.40796875 5.27734375 3.6484375 C5.83066017 5.22398257 6.38404936 6.79950208 6.9375 8.375 C7.21529297 9.1690625 7.49308594 9.963125 7.77929688 10.78125 C8.18051758 11.92207031 8.18051758 11.92207031 8.58984375 13.0859375 C8.83597412 13.7876709 9.08210449 14.4894043 9.33569336 15.21240234 C9.98767764 17.06505095 9.98767764 17.06505095 11 19 C11.98238408 16.58459694 12.96100218 14.16778178 13.9375 11.75 C14.21529297 11.06808594 14.49308594 10.38617188 14.77929688 9.68359375 C16.06975756 6.48076362 17.21800044 3.36162466 18 0 C18.99 0 19.98 0 21 0 C18.24892128 8.90054879 14.59701637 17.41643491 11 26 C10.34 26 9.68 26 9 26 C7.4946891 22.04366575 5.99665407 18.08461633 4.5 14.125 C4.07074219 12.99707031 3.64148438 11.86914062 3.19921875 10.70703125 C2.79316406 9.63066406 2.38710937 8.55429688 1.96875 7.4453125 C1.59169922 6.45031738 1.21464844 5.45532227 0.82617188 4.43017578 C0 2 0 2 0 0 Z " fill="#070707" transform="translate(221,71)"/>
<path d="M0 0 C0.66 0 1.32 0 2 0 C2 2.31 2 4.62 2 7 C19.16 7 36.32 7 54 7 C53.67 7.66 53.34 8.32 53 9 C35.51 9 18.02 9 0 9 C0 6.03 0 3.06 0 0 Z " fill="#8B8B8B" transform="translate(199,112)"/>
<path d="M0 0 C7.3028169 -0.35915493 7.3028169 -0.35915493 10.0625 1.0625 C11.59987081 4.23973301 10.8466463 6.67388953 10 10 C6.3558226 12.4294516 4.28758728 12.16179575 0 12 C0 8.04 0 4.08 0 0 Z " fill="#0A1227" transform="translate(178,32)"/>
<path d="M0 0 C1.65 0 3.3 0 5 0 C4.67 7.92 4.34 15.84 4 24 C13.77845689 23.53442511 13.77845689 23.53442511 18 22 C17.67 23.32 17.34 24.64 17 26 C11.39 26 5.78 26 0 26 C0 17.42 0 8.84 0 0 Z " fill="#111111" transform="translate(198,71)"/>
<path d="M0 0 C0.99 0.33 1.98 0.66 3 1 C3.33 2.65 3.66 4.3 4 6 C4.66 4.02 5.32 2.04 6 0 C6.99 0 7.98 0 9 0 C9.66 1.98 10.32 3.96 11 6 C11.66 4.02 12.32 2.04 13 0 C13.99 0 14.98 0 16 0 C15.01 3.96 14.02 7.92 13 12 C12.01 12 11.02 12 10 12 C9.34 10.02 8.68 8.04 8 6 C7.34 7.98 6.68 9.96 6 12 C4.68 12 3.36 12 2 12 C1.34 8.04 0.68 4.08 0 0 Z " fill="#0C1426" transform="translate(206,32)"/>
<path d="M0 0 C0.66 0.33 1.32 0.66 2 1 C2 1.99 2 2.98 2 4 C4.39614126 4.05425226 6.79103853 4.09379027 9.1875 4.125 C9.86103516 4.14175781 10.53457031 4.15851563 11.22851562 4.17578125 C15.26748978 4.21518588 18.41859848 3.92896579 22 2 C22.33 1.34 22.66 0.68 23 0 C23.66 0 24.32 0 25 0 C24.67 1.32 24.34 2.64 24 4 C25.32 4 26.64 4 28 4 C28 4.99 28 5.98 28 7 C22.25 7.125 22.25 7.125 20 6 C20 6.66 20 7.32 20 8 C18.98679688 7.9278125 17.97359375 7.855625 16.9296875 7.78125 C15.57813249 7.68739201 14.22656957 7.59364808 12.875 7.5 C12.20984375 7.45230469 11.5446875 7.40460938 10.859375 7.35546875 C6.89764586 7.08358538 2.97061445 6.95052194 -1 7 C-1.04254356 5.00045254 -1.04080783 2.99958364 -1 1 C-0.67 0.67 -0.34 0.34 0 0 Z " fill="#9F9FA1" transform="translate(195,103)"/>
<path d="M0 0 C1.32 0 2.64 0 4 0 C4.33 2.64 4.66 5.28 5 8 C5.66 8 6.32 8 7 8 C7.33 5.36 7.66 2.72 8 0 C9.32 0 10.64 0 12 0 C12 3.96 12 7.92 12 12 C11.34 12 10.68 12 10 12 C9.67 10.35 9.34 8.7 9 7 C8.34 8.65 7.68 10.3 7 12 C6.34 12 5.68 12 5 12 C4.34 10.02 3.68 8.04 3 6 C2.67 7.98 2.34 9.96 2 12 C1.34 12 0.68 12 0 12 C0 8.04 0 4.08 0 0 Z " fill="#08102C" transform="translate(151,32)"/>
<path d="M0 0 C2.29141286 -0.05384521 4.58318188 -0.09272087 6.875 -0.125 C8.78925781 -0.15980469 8.78925781 -0.15980469 10.7421875 -0.1953125 C14 0 14 0 16 2 C16.125 5.125 16.125 5.125 16 8 C15.34 8 14.68 8 14 8 C13.731875 8.598125 13.46375 9.19625 13.1875 9.8125 C11.95888747 12.07573361 11.10968654 13.51540577 9 15 C6.625 15.0625 6.625 15.0625 4 14 C0.81701525 10.95848124 -0.86428948 9.17615785 -1.375 4.75 C-1 2 -1 2 0 0 Z M1 1 C1 3.31 1 5.62 1 8 C1.66 8 2.32 8 3 8 C3.33 9.32 3.66 10.64 4 12 C7.465 11.505 7.465 11.505 11 11 C11 10.34 11 9.68 11 9 C11.66 9 12.32 9 13 9 C14.08174162 5.63458162 13.92538169 4.70152678 13 1 C9.04 1 5.08 1 1 1 Z " fill="#BF4264" transform="translate(256,30)"/>
<path d="M0 0 C0.99 0.33 1.98 0.66 3 1 C3.33 2.65 3.66 4.3 4 6 C4.66 6 5.32 6 6 6 C5.67 7.65 5.34 9.3 5 11 C5.66 11 6.32 11 7 11 C6.67 12.65 6.34 14.3 6 16 C3.625 16.625 3.625 16.625 1 17 C0.34 16.34 -0.32 15.68 -1 15 C-4.59679066 15.32326553 -4.59679066 15.32326553 -8 16 C-7.236875 15.4225 -6.47375 14.845 -5.6875 14.25 C-2.99108421 12.16642802 -2.99108421 12.16642802 -1.3125 9.75 C-0.879375 9.1725 -0.44625 8.595 0 8 C0.66 8 1.32 8 2 8 C1.34 5.36 0.68 2.72 0 0 Z " fill="#9EB2F0" transform="translate(270,30)"/>
<path d="M0 0 C1.890625 0.2578125 1.890625 0.2578125 4 1 C5.046875 2.7421875 5.046875 2.7421875 5.75 4.875 C6.11351562 5.92300781 6.11351562 5.92300781 6.484375 6.9921875 C7 9 7 9 7 12 C6.01 12 5.02 12 4 12 C4 11.01 4 10.02 4 9 C2.35 9 0.7 9 -1 9 C-1.33 9.99 -1.66 10.98 -2 12 C-2.66 12 -3.32 12 -4 12 C-3.45660208 7.43545749 -2.20536179 4.0271824 0 0 Z " fill="#131F3B" transform="translate(169,32)"/>
<path d="M0 0 C3.3 0 6.6 0 10 0 C10 0.66 10 1.32 10 2 C7.69 2 5.38 2 3 2 C3 2.99 3 3.98 3 5 C4.98 5 6.96 5 9 5 C9 5.66 9 6.32 9 7 C7.02 7 5.04 7 3 7 C3 7.99 3 8.98 3 10 C5.31 10 7.62 10 10 10 C10 10.66 10 11.32 10 12 C6.7 12 3.4 12 0 12 C0 8.04 0 4.08 0 0 Z " fill="#0D1831" transform="translate(190,32)"/>
<path d="M0 0 C0.66 0 1.32 0 2 0 C2 1.65 2 3.3 2 5 C3.65 5 5.3 5 7 5 C7 3.35 7 1.7 7 0 C7.99 0 8.98 0 10 0 C10 3.96 10 7.92 10 12 C9.01 12 8.02 12 7 12 C7 10.35 7 8.7 7 7 C5.35 7 3.7 7 2 7 C2 8.65 2 10.3 2 12 C1.34 12 0.68 12 0 12 C0 8.04 0 4.08 0 0 Z " fill="#17223D" transform="translate(239,32)"/>
<path d="M0 0 C2.64 0 5.28 0 8 0 C5 2 5 2 3 2 C3 2.99 3 3.98 3 5 C3.99 5.33 4.98 5.66 6 6 C4.68 6 3.36 6 2 6 C2 7.32 2 8.64 2 10 C3.98 10 5.96 10 8 10 C8 9.01 8 8.02 8 7 C8.66 7 9.32 7 10 7 C9.67 8.65 9.34 10.3 9 12 C6.03 12 3.06 12 0 12 C0 8.04 0 4.08 0 0 Z " fill="#0A1225" transform="translate(278,32)"/>
<path d="M0 0 C0.99 0 1.98 0 3 0 C0.24892128 8.90054879 -3.40298363 17.41643491 -7 26 C-7.66 26 -8.32 26 -9 26 C-9 23.36 -9 20.72 -9 18 C-8.34 18.33 -7.68 18.66 -7 19 C-6.01761592 16.58459694 -5.03899782 14.16778178 -4.0625 11.75 C-3.78470703 11.06808594 -3.50691406 10.38617188 -3.22070312 9.68359375 C-1.93024244 6.48076362 -0.78199956 3.36162466 0 0 Z " fill="#151515" transform="translate(239,71)"/>
<path d="M0 0 C2 2 2 2 2.24291992 3.86352539 C2.23881104 4.60078857 2.23470215 5.33805176 2.23046875 6.09765625 C2.22853516 6.89880859 2.22660156 7.69996094 2.22460938 8.52539062 C2.21236328 9.36263672 2.20011719 10.19988281 2.1875 11.0625 C2.18685547 11.90361328 2.18621094 12.74472656 2.18554688 13.61132812 C2.14023184 19.85976816 2.14023184 19.85976816 1 21 C-0.66617115 21.04063832 -2.33388095 21.042721 -4 21 C-3.67 20.34 -3.34 19.68 -3 19 C-2.01 19 -1.02 19 0 19 C-0.33 16.03 -0.66 13.06 -1 10 C-2.32 9.67 -3.64 9.34 -5 9 C-4.34 9 -3.68 9 -3 9 C-2.67 8.34 -2.34 7.68 -2 7 C-1.67 7 -1.34 7 -1 7 C-0.67 4.69 -0.34 2.38 0 0 Z " fill="#4C4E50" transform="translate(256,100)"/>
<path d="M0 0 C0 1.65 0 3.3 0 5 C-0.66 5 -1.32 5 -2 5 C-2 5.99 -2 6.98 -2 8 C-3.98 8 -5.96 8 -8 8 C-7.4140625 1.84765625 -7.4140625 1.84765625 -7 0 C-4.3333581 -1.33332095 -2.83319697 -0.67102033 0 0 Z " fill="#586A8C" transform="translate(288,34)"/>
<path d="M0 0 C0.33 0.99 0.66 1.98 1 3 C1.33 3.66 1.66 4.32 2 5 C6.29 5 10.58 5 15 5 C15 5.66 15 6.32 15 7 C11.32612505 7.85298376 7.9552607 8.10789471 4.1875 8.0625 C3.21167969 8.05347656 2.23585937 8.04445313 1.23046875 8.03515625 C0.49441406 8.02355469 -0.24164063 8.01195313 -1 8 C-1.625 5.6875 -1.625 5.6875 -2 3 C-1.34 2.01 -0.68 1.02 0 0 Z " fill="#676868" transform="translate(238,102)"/>
<path d="M0 0 C0.99 0 1.98 0 3 0 C3.33 1.32 3.66 2.64 4 4 C4.61875 3.34 5.2375 2.68 5.875 2 C8 0 8 0 10 0 C9.690625 0.680625 9.38125 1.36125 9.0625 2.0625 C7.86629351 5.36965912 7.40994603 8.51545878 7 12 C6.01 12 5.02 12 4 12 C3.566875 10.4221875 3.566875 10.4221875 3.125 8.8125 C2.22774807 5.77181289 1.23576581 2.91287656 0 0 Z " fill="#0B132B" transform="translate(290,32)"/>
<path d="M0 0 C0.33 0 0.66 0 1 0 C1.2475 1.216875 1.495 2.43375 1.75 3.6875 C2.7049925 7.58359258 4.22781085 10.04299824 7 13 C6.01 13.495 6.01 13.495 5 14 C5 13.34 5 12.68 5 12 C3.68 12 2.36 12 1 12 C0.67 12.66 0.34 13.32 0 14 C-0.66 14 -1.32 14 -2 14 C-1.835 13.154375 -1.67 12.30875 -1.5 11.4375 C-0.90853822 7.95014583 -0.90853822 7.95014583 -1 4.1875 C-1 1 -1 1 0 0 Z " fill="#A6AEEA" transform="translate(254,32)"/>
<path d="M0 0 C2.475 0.495 2.475 0.495 5 1 C5.625 3.375 5.625 3.375 6 6 C5.34 6.66 4.68 7.32 4 8 C2.68 8 1.36 8 0 8 C0 5.36 0 2.72 0 0 Z " fill="#89A8D9" transform="translate(180,34)"/>
<path d="M0 0 C3.3 0 6.6 0 10 0 C10 0.66 10 1.32 10 2 C8.68 2 7.36 2 6 2 C6 5.3 6 8.6 6 12 C5.34 12 4.68 12 4 12 C4 8.7 4 5.4 4 2 C2.68 2 1.36 2 0 2 C0 1.34 0 0.68 0 0 Z " fill="#020B24" transform="translate(227,32)"/>
<path d="M0 0 C0.66 0.33 1.32 0.66 2 1 C2 1.99 2 2.98 2 4 C4.97 4 7.94 4 11 4 C10.67 4.99 10.34 5.98 10 7 C6.37 7 2.74 7 -1 7 C-1.04254356 5.00045254 -1.04080783 2.99958364 -1 1 C-0.67 0.67 -0.34 0.34 0 0 Z " fill="#8D8F90" transform="translate(195,103)"/>
<path d="M0 0 C1.32 0.33 2.64 0.66 4 1 C4.38218767 2.65614657 4.71395102 4.32457024 5 6 C4 7 4 7 1.4375 7.0625 C0.2309375 7.0315625 0.2309375 7.0315625 -1 7 C-2 4 -2 4 -1.0625 1.8125 C-0.5365625 0.9153125 -0.5365625 0.9153125 0 0 Z " fill="#2D3A52" transform="translate(169,32)"/>
<path d="M0 0 C0.66 0 1.32 0 2 0 C1.67 1.32 1.34 2.64 1 4 C-4.61 4 -10.22 4 -16 4 C-12.21704222 2.10852111 -10.38908136 1.69330684 -6.3125 1.4375 C-2.84404143 1.49245272 -2.84404143 1.49245272 0 0 Z " fill="#2C2C2C" transform="translate(214,93)"/>
<path d="M0 0 C0.99 0 1.98 0 3 0 C3 3.96 3 7.92 3 12 C2.01 12 1.02 12 0 12 C0 8.04 0 4.08 0 0 Z " fill="#192643" transform="translate(223,32)"/>
<path d="M0 0 C0.33 0 0.66 0 1 0 C1.33 3.63 1.66 7.26 2 11 C2.99 11 3.98 11 5 11 C5 11.66 5 12.32 5 13 C1.71303767 13.79953138 0.28976808 14.09658936 -3 13 C-3.625 10.1875 -3.625 10.1875 -4 7 C-3.34 6.01 -2.68 5.02 -2 4 C-2 6.64 -2 9.28 -2 12 C-1.34 12 -0.68 12 0 12 C0 8.04 0 4.08 0 0 Z " fill="#879DC7" transform="translate(163,32)"/>
<path d="M0 0 C1.98 0 3.96 0 6 0 C6 0.66 6 1.32 6 2 C6.66 2 7.32 2 8 2 C8 3.32 8 4.64 8 6 C4.37 6 0.74 6 -3 6 C-3 5.67 -3 5.34 -3 5 C0.3 5 3.6 5 7 5 C7 4.34 7 3.68 7 3 C4.69 3 2.38 3 0 3 C0 2.01 0 1.02 0 0 Z " fill="#95AFE4" transform="translate(193,39)"/>
<path d="M0 0 C0.66 0 1.32 0 2 0 C4.29013653 3.4352048 4.17842973 4.985331 4 9 C3.34 8.34 2.68 7.68 2 7 C-0.10820797 7.3185177 -0.10820797 7.3185177 -2 8 C-1.125 2.25 -1.125 2.25 0 0 Z " fill="#8AA6DE" transform="translate(290,35)"/>
<path d="M0 0 C1.98 0 3.96 0 6 0 C5.67 0.66 5.34 1.32 5 2 C4.01 2 3.02 2 2 2 C2.33 4.97 2.66 7.94 3 11 C2.01 11 1.02 11 0 11 C0 7.37 0 3.74 0 0 Z " fill="#040919" transform="translate(178,32)"/>
<path d="M0 0 C0.66 0 1.32 0 2 0 C2 1.65 2 3.3 2 5 C3.65 5 5.3 5 7 5 C7 5.33 7 5.66 7 6 C5.35 6 3.7 6 2 6 C2 7.98 2 9.96 2 12 C1.34 12 0.68 12 0 12 C0 8.04 0 4.08 0 0 Z " fill="#010720" transform="translate(239,32)"/>
<path d="M0 0 C1.32 0 2.64 0 4 0 C3.95875 0.763125 3.9175 1.52625 3.875 2.3125 C3.77919176 5.22718416 3.77919176 5.22718416 6 8 C5.01 8.495 5.01 8.495 4 9 C3.34 8.67 2.68 8.34 2 8 C1.67 8.66 1.34 9.32 1 10 C0.3125 8.3125 0.3125 8.3125 0 6 C1.4375 3.25 1.4375 3.25 3 1 C2.01 1.33 1.02 1.66 0 2 C0 1.34 0 0.68 0 0 Z " fill="#92AFEC" transform="translate(297,31)"/>
<path d="M0 0 C2.875 -0.125 2.875 -0.125 6 0 C8 2 8 2 8.125 5.125 C8.08375 6.07375 8.0425 7.0225 8 8 C7.34 8 6.68 8 6 8 C5.67 8.66 5.34 9.32 5 10 C5 7.03 5 4.06 5 1 C3.35 1 1.7 1 0 1 C0 0.67 0 0.34 0 0 Z " fill="#BD4E74" transform="translate(264,30)"/>
<path d="M0 0 C2.64 0 5.28 0 8 0 C8.33 1.32 8.66 2.64 9 4 C6.36 3.67 3.72 3.34 1 3 C0.67 2.01 0.34 1.02 0 0 Z " fill="#98999B" transform="translate(206,107)"/>
<path d="M0 0 C0.598125 0.20625 1.19625 0.4125 1.8125 0.625 C1.8125 1.615 1.8125 2.605 1.8125 3.625 C1.1525 3.625 0.4925 3.625 -0.1875 3.625 C-0.1875 2.965 -0.1875 2.305 -0.1875 1.625 C-3.43599977 3.34726496 -3.43599977 3.34726496 -4.1875 6.625 C-4.8475 6.625 -5.5075 6.625 -6.1875 6.625 C-5.875 4.25 -5.875 4.25 -5.1875 1.625 C-2.1875 -0.375 -2.1875 -0.375 0 0 Z " fill="#767877" transform="translate(232.1875,102.375)"/>
<path d="M0 0 C0.99 0.33 1.98 0.66 3 1 C3.66 4.3 4.32 7.6 5 11 C4.01 10.67 3.02 10.34 2 10 C1.34 6.7 0.68 3.4 0 0 Z " fill="#0D162E" transform="translate(206,32)"/>
<path d="M0 0 C0.66 0 1.32 0 2 0 C2 2.31 2 4.62 2 7 C2.99 7.33 3.98 7.66 5 8 C3.35 8.33 1.7 8.66 0 9 C0 6.03 0 3.06 0 0 Z " fill="#868686" transform="translate(199,112)"/>
<path d="M0 0 C2 2 2 2 2.125 5.125 C2.08375 6.07375 2.0425 7.0225 2 8 C0.02 8.33 -1.96 8.66 -4 9 C-3.01 8.67 -2.02 8.34 -1 8 C-0.67 5.36 -0.34 2.72 0 0 Z " fill="#8FA7D8" transform="translate(213,36)"/>
<path d="M0 0 C0.99 0.99 1.98 1.98 3 3 C2.77669287 6.64734979 2.61627165 8.38372835 0 11 C0 7.37 0 3.74 0 0 Z " fill="#9EBBEF" transform="translate(164,32)"/>
<path d="M0 0 C-0.309375 0.680625 -0.61875 1.36125 -0.9375 2.0625 C-2.13370649 5.36965912 -2.59005397 8.51545878 -3 12 C-3.33 12 -3.66 12 -4 12 C-4 9.69 -4 7.38 -4 5 C-4.66 4.67 -5.32 4.34 -6 4 C-2.25 0 -2.25 0 0 0 Z " fill="#22344C" transform="translate(300,32)"/>
<path d="M0 0 C2 3 2 3 1.625 6.1875 C1.41875 7.115625 1.2125 8.04375 1 9 C-0.32 9 -1.64 9 -3 9 C-2.67 8.34 -2.34 7.68 -2 7 C-2 6.34 -2 5.68 -2 5 C-1.36096883 3.32254318 -0.69658363 1.65438613 0 0 Z " fill="#232E49" transform="translate(211,35)"/>
<path d="M0 0 C0.99 0 1.98 0 3 0 C2.34 2.97 1.68 5.94 1 9 C0.34 8.34 -0.32 7.68 -1 7 C-0.625 3.375 -0.625 3.375 0 0 Z " fill="#162238" transform="translate(219,32)"/>
<path d="M0 0 C0.33 0 0.66 0 1 0 C1 2.31 1 4.62 1 7 C-0.65 7.66 -2.3 8.32 -4 9 C-4.66 8.34 -5.32 7.68 -6 7 C-5 6 -5 6 -2.4375 5.9375 C-1.2309375 5.9684375 -1.2309375 5.9684375 0 6 C0 4.02 0 2.04 0 0 Z " fill="#9BBBF2" transform="translate(297,38)"/>
<path d="M0 0 C1.65 0 3.3 0 5 0 C4.67 1.32 4.34 2.64 4 4 C2.68 4.33 1.36 4.66 0 5 C0 3.35 0 1.7 0 0 Z " fill="#94B6E3" transform="translate(241,39)"/>
<path d="M0 0 C1.42944945 2.35438733 2.08661261 3.48032433 1.625 6.25 C1.41875 6.8275 1.2125 7.405 1 8 C0.34 8 -0.32 8 -1 8 C-1.33 5.69 -1.66 3.38 -2 1 C-1.34 0.67 -0.68 0.34 0 0 Z " fill="#89A5D4" transform="translate(157,32)"/>
<path d="M0 0 C0.66 0 1.32 0 2 0 C1.67 1.65 1.34 3.3 1 5 C-1.31 4.67 -3.62 4.34 -6 4 C-6 3.67 -6 3.34 -6 3 C-4.02 3 -2.04 3 0 3 C0 2.01 0 1.02 0 0 Z " fill="#0D1328" transform="translate(286,39)"/>
<path d="M0 0 C3.875 1.875 3.875 1.875 5 3 C5.04063832 4.66617115 5.042721 6.33388095 5 8 C4.566875 7.401875 4.13375 6.80375 3.6875 6.1875 C2.22538761 4.29216913 0.72949773 2.6471407 -1 1 C-0.67 0.67 -0.34 0.34 0 0 Z " fill="#323D5F" transform="translate(184,32)"/>
<path d="" fill="#000000" transform="translate(0,0)"/>
<path d="" fill="#000000" transform="translate(0,0)"/>
<path d="" fill="#000000" transform="translate(0,0)"/>
<path d="" fill="#000000" transform="translate(0,0)"/>
</svg>
